# MagicaVoxel @ Ephtracy

# group
o speed-potion

# material
mtllib speed-potion.mtl
usemtl palette

# normals
vn -1 0 0
vn 1 0 0
vn 0 -1 0
vn 0 1 0
vn 0 0 -1
vn 0 0 1

# texcoords
vt 0.00195313 0.5
vt 0.166016 0.5
vt 0.201172 0.5
vt 0.228516 0.5
vt 0.451172 0.5
vt 0.470703 0.5

# verts
v -0.6 -0.6 -0.1
v -0.6 -0.1 -0.1
v -0.6 -0.6 0
v -0.6 -0.1 0
v -0.5 -0.7 -0.1
v -0.5 -0.6 -0.1
v -0.5 -0.7 0
v -0.5 -0.6 0
v -0.4 -0.1 -0.1
v -0.4 0.2 -0.1
v -0.4 -0.1 0
v -0.4 0.2 0
v -0.3 -0.8 -0.1
v -0.3 -0.7 -0.1
v -0.3 0.6 -0.1
v -0.3 0.8 -0.1
v -0.3 -0.8 0
v -0.3 -0.7 0
v -0.3 0.6 0
v -0.3 0.8 0
v -0.2 0.2 -0.1
v -0.2 0.6 -0.1
v -0.2 0.2 0
v -0.2 0.6 0
v 0.1 0.1 -0.1
v 0.1 0.6 -0.1
v 0.1 0.1 0
v 0.1 0.6 0
v -0.1 0.1 -0.1
v -0.1 0.6 -0.1
v -0.1 0.1 0
v -0.1 0.6 0
v 0.2 0.2 -0.1
v 0.2 0.6 -0.1
v 0.2 0.2 0
v 0.2 0.6 0
v 0.3 -0.8 -0.1
v 0.3 -0.7 -0.1
v 0.3 0.6 -0.1
v 0.3 0.8 -0.1
v 0.3 -0.8 0
v 0.3 -0.7 0
v 0.3 0.6 0
v 0.3 0.8 0
v 0.4 -0.1 -0.1
v 0.4 0.2 -0.1
v 0.4 -0.1 0
v 0.4 0.2 0
v 0.5 -0.7 -0.1
v 0.5 -0.6 -0.1
v 0.5 -0.7 0
v 0.5 -0.6 0
v 0.6 -0.6 -0.1
v 0.6 -0.1 -0.1
v 0.6 -0.6 0
v 0.6 -0.1 0
v -0.3 -0.8 -0.1
v -0.3 -0.8 0
v 0.3 -0.8 -0.1
v 0.3 -0.8 0
v -0.5 -0.7 -0.1
v -0.5 -0.7 0
v -0.3 -0.7 -0.1
v -0.3 -0.7 0
v 0.3 -0.7 -0.1
v 0.3 -0.7 0
v 0.5 -0.7 -0.1
v 0.5 -0.7 0
v -0.6 -0.6 -0.1
v -0.6 -0.6 0
v -0.5 -0.6 -0.1
v -0.5 -0.6 0
v 0.5 -0.6 -0.1
v 0.5 -0.6 0
v 0.6 -0.6 -0.1
v 0.6 -0.6 0
v -0.3 0.6 -0.1
v -0.3 0.6 0
v -0.2 0.6 -0.1
v -0.2 0.6 0
v -0.1 0.6 -0.1
v -0.1 0.6 0
v 0.1 0.6 -0.1
v 0.1 0.6 0
v 0.2 0.6 -0.1
v 0.2 0.6 0
v 0.3 0.6 -0.1
v 0.3 0.6 0
v -0.6 -0.1 -0.1
v -0.6 -0.1 0
v -0.4 -0.1 -0.1
v -0.4 -0.1 0
v 0.4 -0.1 -0.1
v 0.4 -0.1 0
v 0.6 -0.1 -0.1
v 0.6 -0.1 0
v -0.1 0.1 -0.1
v -0.1 0.1 0
v 0.1 0.1 -0.1
v 0.1 0.1 0
v -0.4 0.2 -0.1
v -0.4 0.2 0
v -0.2 0.2 -0.1
v -0.2 0.2 0
v 0.2 0.2 -0.1
v 0.2 0.2 0
v 0.4 0.2 -0.1
v 0.4 0.2 0
v -0.3 0.8 -0.1
v -0.3 0.8 0
v -0.2 0.8 -0.1
v -0.2 0.8 0
v 0.2 0.8 -0.1
v 0.2 0.8 0
v 0.3 0.8 -0.1
v 0.3 0.8 0
v -0.3 -0.8 -0.1
v 0.3 -0.8 -0.1
v -0.5 -0.7 -0.1
v -0.3 -0.7 -0.1
v 0.3 -0.7 -0.1
v 0.5 -0.7 -0.1
v -0.6 -0.6 -0.1
v -0.5 -0.6 -0.1
v -0.3 -0.6 -0.1
v 0.3 -0.6 -0.1
v 0.5 -0.6 -0.1
v 0.6 -0.6 -0.1
v 0.3 -0.5 -0.1
v 0.4 -0.5 -0.1
v -0.3 -0.4 -0.1
v -0.2 -0.4 -0.1
v -0.5 -0.2 -0.1
v -0.4 -0.2 -0.1
v -0.3 -0.2 -0.1
v -0.2 -0.2 -0.1
v -0.1 -0.2 -0.1
v 0.4 -0.2 -0.1
v 0.5 -0.2 -0.1
v -0.6 -0.1 -0.1
v -0.4 -0.1 -0.1
v -0.3 -0.1 -0.1
v -0.2 -0.1 -0.1
v -0.1 -0.1 -0.1
v 0.1 -0.1 -0.1
v 0.2 -0.1 -0.1
v 0.3 -0.1 -0.1
v 0.4 -0.1 -0.1
v 0.6 -0.1 -0.1
v -0.3 0 -0.1
v -0.2 0 -0.1
v -0.1 0 -0.1
v 0.1 0 -0.1
v 0.2 0 -0.1
v -0.3 0.1 -0.1
v -0.1 0.1 -0.1
v 0.1 0.1 -0.1
v 0.3 0.1 -0.1
v -0.4 0.2 -0.1
v -0.2 0.2 -0.1
v 0.2 0.2 -0.1
v 0.4 0.2 -0.1
v -0.3 0.6 -0.1
v -0.2 0.6 -0.1
v -0.1 0.6 -0.1
v 0.1 0.6 -0.1
v 0.2 0.6 -0.1
v 0.3 0.6 -0.1
v -0.2 0.7 -0.1
v 0.2 0.7 -0.1
v -0.3 0.8 -0.1
v -0.2 0.8 -0.1
v 0.2 0.8 -0.1
v 0.3 0.8 -0.1
v -0.3 -0.8 0
v 0.3 -0.8 0
v -0.5 -0.7 0
v -0.3 -0.7 0
v 0.3 -0.7 0
v 0.5 -0.7 0
v -0.6 -0.6 0
v -0.5 -0.6 0
v -0.3 -0.6 0
v 0.3 -0.6 0
v 0.5 -0.6 0
v 0.6 -0.6 0
v 0.3 -0.5 0
v 0.4 -0.5 0
v -0.3 -0.4 0
v -0.2 -0.4 0
v -0.5 -0.2 0
v -0.4 -0.2 0
v -0.3 -0.2 0
v -0.2 -0.2 0
v -0.1 -0.2 0
v 0.4 -0.2 0
v 0.5 -0.2 0
v -0.6 -0.1 0
v -0.4 -0.1 0
v -0.3 -0.1 0
v -0.2 -0.1 0
v -0.1 -0.1 0
v 0.1 -0.1 0
v 0.2 -0.1 0
v 0.3 -0.1 0
v 0.4 -0.1 0
v 0.6 -0.1 0
v -0.3 0 0
v -0.2 0 0
v -0.1 0 0
v 0.1 0 0
v 0.2 0 0
v -0.3 0.1 0
v -0.1 0.1 0
v 0.1 0.1 0
v 0.3 0.1 0
v -0.4 0.2 0
v -0.2 0.2 0
v 0.2 0.2 0
v 0.4 0.2 0
v -0.3 0.6 0
v -0.2 0.6 0
v -0.1 0.6 0
v 0.1 0.6 0
v 0.2 0.6 0
v 0.3 0.6 0
v -0.2 0.7 0
v 0.2 0.7 0
v -0.3 0.8 0
v -0.2 0.8 0
v 0.2 0.8 0
v 0.3 0.8 0

# faces
f 3/2/1 2/2/1 1/2/1
f 4/2/1 2/2/1 3/2/1
f 7/2/1 6/2/1 5/2/1
f 8/2/1 6/2/1 7/2/1
f 11/2/1 10/2/1 9/2/1
f 12/2/1 10/2/1 11/2/1
f 17/2/1 14/2/1 13/2/1
f 18/2/1 14/2/1 17/2/1
f 19/2/1 16/2/1 15/2/1
f 20/2/1 16/2/1 19/2/1
f 23/2/1 22/2/1 21/2/1
f 24/2/1 22/2/1 23/2/1
f 27/2/1 26/2/1 25/2/1
f 28/2/1 26/2/1 27/2/1
f 29/2/2 30/2/2 31/2/2
f 31/2/2 30/2/2 32/2/2
f 33/2/2 34/2/2 35/2/2
f 35/2/2 34/2/2 36/2/2
f 37/2/2 38/2/2 41/2/2
f 41/2/2 38/2/2 42/2/2
f 39/2/2 40/2/2 43/2/2
f 43/2/2 40/2/2 44/2/2
f 45/2/2 46/2/2 47/2/2
f 47/2/2 46/2/2 48/2/2
f 49/2/2 50/2/2 51/2/2
f 51/2/2 50/2/2 52/2/2
f 53/2/2 54/2/2 55/2/2
f 55/2/2 54/2/2 56/2/2
f 59/2/3 58/2/3 57/2/3
f 60/2/3 58/2/3 59/2/3
f 63/2/3 62/2/3 61/2/3
f 64/2/3 62/2/3 63/2/3
f 67/2/3 66/2/3 65/2/3
f 68/2/3 66/2/3 67/2/3
f 71/2/3 70/2/3 69/2/3
f 72/2/3 70/2/3 71/2/3
f 75/2/3 74/2/3 73/2/3
f 76/2/3 74/2/3 75/2/3
f 79/2/3 78/2/3 77/2/3
f 80/2/3 78/2/3 79/2/3
f 83/4/3 82/4/3 81/4/3
f 84/4/3 82/4/3 83/4/3
f 87/2/3 86/2/3 85/2/3
f 88/2/3 86/2/3 87/2/3
f 89/2/4 90/2/4 91/2/4
f 91/2/4 90/2/4 92/2/4
f 93/2/4 94/2/4 95/2/4
f 95/2/4 94/2/4 96/2/4
f 97/5/4 98/5/4 99/5/4
f 99/5/4 98/5/4 100/5/4
f 101/2/4 102/2/4 103/2/4
f 103/2/4 102/2/4 104/2/4
f 105/2/4 106/2/4 107/2/4
f 107/2/4 106/2/4 108/2/4
f 109/2/4 110/2/4 111/2/4
f 111/2/4 110/2/4 112/2/4
f 111/3/4 112/3/4 113/3/4
f 113/3/4 112/3/4 114/3/4
f 113/2/4 114/2/4 115/2/4
f 115/2/4 114/2/4 116/2/4
f 120/2/5 118/2/5 117/2/5
f 121/2/5 118/2/5 120/2/5
f 124/2/5 120/2/5 119/2/5
f 125/6/5 121/6/5 120/6/5
f 125/2/5 120/2/5 124/2/5
f 126/2/5 122/2/5 121/2/5
f 126/6/5 121/6/5 125/6/5
f 127/2/5 122/2/5 126/2/5
f 129/6/5 125/6/5 124/6/5
f 129/6/5 126/6/5 125/6/5
f 129/5/5 127/5/5 126/5/5
f 130/5/5 127/5/5 129/5/5
f 131/6/5 129/6/5 124/6/5
f 131/6/5 130/6/5 129/6/5
f 132/6/5 130/6/5 131/6/5
f 133/2/5 124/2/5 123/2/5
f 133/6/5 131/6/5 124/6/5
f 134/6/5 131/6/5 133/6/5
f 135/1/5 132/1/5 131/1/5
f 135/6/5 131/6/5 134/6/5
f 136/6/5 130/6/5 132/6/5
f 136/1/5 132/1/5 135/1/5
f 137/6/5 130/6/5 136/6/5
f 138/5/5 127/5/5 130/5/5
f 138/6/5 130/6/5 137/6/5
f 139/2/5 128/2/5 127/2/5
f 139/5/5 127/5/5 138/5/5
f 140/2/5 134/2/5 133/2/5
f 140/2/5 133/2/5 123/2/5
f 141/6/5 135/6/5 134/6/5
f 141/2/5 134/2/5 140/2/5
f 141/6/5 136/6/5 135/6/5
f 142/6/5 136/6/5 141/6/5
f 143/1/5 137/1/5 136/1/5
f 143/6/5 136/6/5 142/6/5
f 144/6/5 138/6/5 137/6/5
f 144/1/5 137/1/5 143/1/5
f 145/6/5 138/6/5 144/6/5
f 146/6/5 138/6/5 145/6/5
f 147/6/5 138/6/5 146/6/5
f 148/2/5 139/2/5 138/2/5
f 148/6/5 138/6/5 147/6/5
f 149/2/5 128/2/5 139/2/5
f 149/2/5 139/2/5 148/2/5
f 150/5/5 143/5/5 142/5/5
f 150/2/5 142/2/5 141/2/5
f 151/1/5 144/1/5 143/1/5
f 151/5/5 143/5/5 150/5/5
f 152/5/5 145/5/5 144/5/5
f 152/1/5 144/1/5 151/1/5
f 153/6/5 146/6/5 145/6/5
f 153/5/5 145/5/5 152/5/5
f 154/5/5 147/5/5 146/5/5
f 154/6/5 146/6/5 153/6/5
f 155/6/5 152/6/5 151/6/5
f 155/6/5 151/6/5 150/6/5
f 155/2/5 150/2/5 141/2/5
f 156/5/5 153/5/5 152/5/5
f 156/6/5 152/6/5 155/6/5
f 156/5/5 154/5/5 153/5/5
f 157/5/5 154/5/5 156/5/5
f 158/5/5 147/5/5 154/5/5
f 158/5/5 154/5/5 157/5/5
f 158/2/5 148/2/5 147/2/5
f 159/2/5 156/2/5 155/2/5
f 159/2/5 155/2/5 141/2/5
f 160/2/5 156/2/5 159/2/5
f 161/2/5 158/2/5 157/2/5
f 162/2/5 148/2/5 158/2/5
f 162/2/5 158/2/5 161/2/5
f 164/2/5 156/2/5 160/2/5
f 165/2/5 156/2/5 164/2/5
f 166/2/5 161/2/5 157/2/5
f 167/2/5 161/2/5 166/2/5
f 169/4/5 165/4/5 164/4/5
f 169/2/5 164/2/5 163/2/5
f 169/4/5 167/4/5 166/4/5
f 169/4/5 166/4/5 165/4/5
f 170/2/5 168/2/5 167/2/5
f 170/4/5 167/4/5 169/4/5
f 171/2/5 169/2/5 163/2/5
f 172/3/5 170/3/5 169/3/5
f 172/2/5 169/2/5 171/2/5
f 173/2/5 168/2/5 170/2/5
f 173/3/5 170/3/5 172/3/5
f 174/2/5 168/2/5 173/2/5
f 175/2/6 176/2/6 178/2/6
f 178/2/6 176/2/6 179/2/6
f 177/2/6 178/2/6 182/2/6
f 178/6/6 179/6/6 183/6/6
f 182/2/6 178/2/6 183/2/6
f 179/2/6 180/2/6 184/2/6
f 183/6/6 179/6/6 184/6/6
f 184/2/6 180/2/6 185/2/6
f 182/6/6 183/6/6 187/6/6
f 183/6/6 184/6/6 187/6/6
f 184/5/6 185/5/6 187/5/6
f 187/5/6 185/5/6 188/5/6
f 182/6/6 187/6/6 189/6/6
f 187/6/6 188/6/6 189/6/6
f 189/6/6 188/6/6 190/6/6
f 181/2/6 182/2/6 191/2/6
f 182/6/6 189/6/6 191/6/6
f 191/6/6 189/6/6 192/6/6
f 189/1/6 190/1/6 193/1/6
f 192/6/6 189/6/6 193/6/6
f 190/6/6 188/6/6 194/6/6
f 193/1/6 190/1/6 194/1/6
f 194/6/6 188/6/6 195/6/6
f 188/5/6 185/5/6 196/5/6
f 195/6/6 188/6/6 196/6/6
f 185/2/6 186/2/6 197/2/6
f 196/5/6 185/5/6 197/5/6
f 191/2/6 192/2/6 198/2/6
f 181/2/6 191/2/6 198/2/6
f 192/6/6 193/6/6 199/6/6
f 198/2/6 192/2/6 199/2/6
f 193/6/6 194/6/6 199/6/6
f 199/6/6 194/6/6 200/6/6
f 194/1/6 195/1/6 201/1/6
f 200/6/6 194/6/6 201/6/6
f 195/6/6 196/6/6 202/6/6
f 201/1/6 195/1/6 202/1/6
f 202/6/6 196/6/6 203/6/6
f 203/6/6 196/6/6 204/6/6
f 204/6/6 196/6/6 205/6/6
f 196/2/6 197/2/6 206/2/6
f 205/6/6 196/6/6 206/6/6
f 197/2/6 186/2/6 207/2/6
f 206/2/6 197/2/6 207/2/6
f 200/5/6 201/5/6 208/5/6
f 199/2/6 200/2/6 208/2/6
f 201/1/6 202/1/6 209/1/6
f 208/5/6 201/5/6 209/5/6
f 202/5/6 203/5/6 210/5/6
f 209/1/6 202/1/6 210/1/6
f 203/6/6 204/6/6 211/6/6
f 210/5/6 203/5/6 211/5/6
f 204/5/6 205/5/6 212/5/6
f 211/6/6 204/6/6 212/6/6
f 209/6/6 210/6/6 213/6/6
f 208/6/6 209/6/6 213/6/6
f 199/2/6 208/2/6 213/2/6
f 210/5/6 211/5/6 214/5/6
f 213/6/6 210/6/6 214/6/6
f 211/5/6 212/5/6 214/5/6
f 214/5/6 212/5/6 215/5/6
f 212/5/6 205/5/6 216/5/6
f 215/5/6 212/5/6 216/5/6
f 205/2/6 206/2/6 216/2/6
f 213/2/6 214/2/6 217/2/6
f 199/2/6 213/2/6 217/2/6
f 217/2/6 214/2/6 218/2/6
f 215/2/6 216/2/6 219/2/6
f 216/2/6 206/2/6 220/2/6
f 219/2/6 216/2/6 220/2/6
f 218/2/6 214/2/6 222/2/6
f 222/2/6 214/2/6 223/2/6
f 215/2/6 219/2/6 224/2/6
f 224/2/6 219/2/6 225/2/6
f 222/4/6 223/4/6 227/4/6
f 221/2/6 222/2/6 227/2/6
f 224/4/6 225/4/6 227/4/6
f 223/4/6 224/4/6 227/4/6
f 225/2/6 226/2/6 228/2/6
f 227/4/6 225/4/6 228/4/6
f 221/2/6 227/2/6 229/2/6
f 227/3/6 228/3/6 230/3/6
f 229/2/6 227/2/6 230/2/6
f 228/2/6 226/2/6 231/2/6
f 230/3/6 228/3/6 231/3/6
f 231/2/6 226/2/6 232/2/6
