# MagicaVoxel @ Ephtracy

# group
o key-blue-icon

# material
mtllib blue-key.mtl
usemtl palette

# normals
vn -1 0 0
vn 1 0 0
vn 0 -1 0
vn 0 1 0
vn 0 0 -1
vn 0 0 1

# texcoords
vt 0.330078 0.5
vt 0.876953 0.5
vt 0.927734 0.5

# verts
v -0.7 -1.2 -0.1
v -0.7 -0.6 -0.1
v -0.7 0.6 -0.1
v -0.7 0.8 -0.1
v -0.7 1 -0.1
v -0.7 1.2 -0.1
v -0.7 1.4 -0.1
v -0.7 1.6 -0.1
v -0.7 -1.2 0.1
v -0.7 -0.6 0.1
v -0.7 0.6 0.1
v -0.7 0.8 0.1
v -0.7 1 0.1
v -0.7 1.2 0.1
v -0.7 1.4 0.1
v -0.7 1.6 0.1
v -0.6 -1.2 -0.2
v -0.6 -0.6 -0.2
v -0.6 0.6 -0.2
v -0.6 0.7 -0.2
v -0.6 1 -0.2
v -0.6 1.1 -0.2
v -0.6 1.4 -0.2
v -0.6 1.5 -0.2
v -0.6 -1.3 -0.1
v -0.6 -1.2 -0.1
v -0.6 -0.6 -0.1
v -0.6 -0.5 -0.1
v -0.6 0.5 -0.1
v -0.6 0.6 -0.1
v -0.6 0.7 -0.1
v -0.6 0.9 -0.1
v -0.6 1 -0.1
v -0.6 1.1 -0.1
v -0.6 1.3 -0.1
v -0.6 1.4 -0.1
v -0.6 1.5 -0.1
v -0.6 -1.3 0.1
v -0.6 -1.2 0.1
v -0.6 -0.6 0.1
v -0.6 -0.5 0.1
v -0.6 0.5 0.1
v -0.6 0.6 0.1
v -0.6 0.7 0.1
v -0.6 0.9 0.1
v -0.6 1 0.1
v -0.6 1.1 0.1
v -0.6 1.3 0.1
v -0.6 1.4 0.1
v -0.6 1.5 0.1
v -0.6 -1.2 0.2
v -0.6 -0.6 0.2
v -0.6 0.6 0.2
v -0.6 0.7 0.2
v -0.6 1 0.2
v -0.6 1.1 0.2
v -0.6 1.4 0.2
v -0.6 1.5 0.2
v -0.5 -1.3 -0.2
v -0.5 -1.2 -0.2
v -0.5 -1.4 -0.1
v -0.5 -1.3 -0.1
v -0.5 -1.2 -0.1
v -0.5 -0.5 -0.1
v -0.5 -0.4 -0.1
v -0.5 -1.4 0.1
v -0.5 -1.3 0.1
v -0.5 -1.2 0.1
v -0.5 -0.5 0.1
v -0.5 -0.4 0.1
v -0.5 -1.3 0.2
v -0.5 -1.2 0.2
v -0.4 -0.6 -0.2
v -0.4 -0.4 -0.2
v -0.4 -0.6 -0.1
v -0.4 -0.4 -0.1
v -0.4 -0.3 -0.1
v -0.4 -0.6 0.1
v -0.4 -0.4 0.1
v -0.4 -0.3 0.1
v -0.4 -0.6 0.2
v -0.4 -0.4 0.2
v -0.3 -1.4 -0.2
v -0.3 -1.3 -0.2
v -0.3 -1.5 -0.1
v -0.3 -1.4 -0.1
v -0.3 -1.3 -0.1
v -0.3 -0.3 -0.1
v -0.3 0.5 -0.1
v -0.3 -1.5 0.1
v -0.3 -1.4 0.1
v -0.3 -1.3 0.1
v -0.3 -0.3 0.1
v -0.3 0.5 0.1
v -0.3 -1.4 0.2
v -0.3 -1.3 0.2
v -0.2 -1.5 -0.2
v -0.2 -1.4 -0.2
v -0.2 -0.4 -0.2
v -0.2 0.6 -0.2
v -0.2 -1.6 -0.1
v -0.2 -1.5 -0.1
v -0.2 -1.4 -0.1
v -0.2 -0.4 -0.1
v -0.2 0.6 -0.1
v -0.2 0.8 -0.1
v -0.2 0.9 -0.1
v -0.2 1.2 -0.1
v -0.2 1.3 -0.1
v -0.2 -1.6 0.1
v -0.2 -1.5 0.1
v -0.2 -1.4 0.1
v -0.2 -0.4 0.1
v -0.2 0.6 0.1
v -0.2 0.8 0.1
v -0.2 0.9 0.1
v -0.2 1.2 0.1
v -0.2 1.3 0.1
v -0.2 -1.5 0.2
v -0.2 -1.4 0.2
v -0.2 -0.4 0.2
v -0.2 0.6 0.2
v -0.1 0.7 -0.2
v -0.1 1 -0.2
v -0.1 1.1 -0.2
v -0.1 1.4 -0.2
v -0.1 0.7 -0.1
v -0.1 1 -0.1
v -0.1 1.1 -0.1
v -0.1 1.4 -0.1
v -0.1 0.7 0.1
v -0.1 1 0.1
v -0.1 1.1 0.1
v -0.1 1.4 0.1
v -0.1 0.7 0.2
v -0.1 1 0.2
v -0.1 1.1 0.2
v -0.1 1.4 0.2
v 0.2 -1.1 -0.2
v 0.2 -0.7 -0.2
v 0.2 -1.1 0.2
v 0.2 -0.7 0.2
v -0.2 -1.1 -0.2
v -0.2 -0.7 -0.2
v -0.2 -1.1 0.2
v -0.2 -0.7 0.2
v 0.1 -0.3 -0.2
v 0.1 1.5 -0.2
v 0.1 -0.3 -0.1
v 0.1 1.5 -0.1
v 0.1 -0.3 0.1
v 0.1 1.5 0.1
v 0.1 -0.3 0.2
v 0.1 1.5 0.2
v 0.2 -1.5 -0.2
v 0.2 -1.4 -0.2
v 0.2 -0.4 -0.2
v 0.2 -0.3 -0.2
v 0.2 -1.6 -0.1
v 0.2 -1.5 -0.1
v 0.2 -1.4 -0.1
v 0.2 -0.4 -0.1
v 0.2 -0.3 -0.1
v 0.2 1.6 -0.1
v 0.2 -1.6 0.1
v 0.2 -1.5 0.1
v 0.2 -1.4 0.1
v 0.2 -0.4 0.1
v 0.2 -0.3 0.1
v 0.2 1.6 0.1
v 0.2 -1.5 0.2
v 0.2 -1.4 0.2
v 0.2 -0.4 0.2
v 0.2 -0.3 0.2
v 0.3 -1.4 -0.2
v 0.3 -1.3 -0.2
v 0.3 -1.5 -0.1
v 0.3 -1.4 -0.1
v 0.3 -1.3 -0.1
v 0.3 -1.5 0.1
v 0.3 -1.4 0.1
v 0.3 -1.3 0.1
v 0.3 -1.4 0.2
v 0.3 -1.3 0.2
v 0.4 -0.6 -0.2
v 0.4 -0.4 -0.2
v 0.4 -0.6 -0.1
v 0.4 -0.4 -0.1
v 0.4 -0.3 -0.1
v 0.4 -0.6 0.1
v 0.4 -0.4 0.1
v 0.4 -0.3 0.1
v 0.4 -0.6 0.2
v 0.4 -0.4 0.2
v 0.5 -1.3 -0.2
v 0.5 -1.2 -0.2
v 0.5 -1.4 -0.1
v 0.5 -1.3 -0.1
v 0.5 -1.2 -0.1
v 0.5 -0.5 -0.1
v 0.5 -0.4 -0.1
v 0.5 -1.4 0.1
v 0.5 -1.3 0.1
v 0.5 -1.2 0.1
v 0.5 -0.5 0.1
v 0.5 -0.4 0.1
v 0.5 -1.3 0.2
v 0.5 -1.2 0.2
v 0.6 -1.2 -0.2
v 0.6 -0.6 -0.2
v 0.6 -1.3 -0.1
v 0.6 -1.2 -0.1
v 0.6 -0.6 -0.1
v 0.6 -0.5 -0.1
v 0.6 -1.3 0.1
v 0.6 -1.2 0.1
v 0.6 -0.6 0.1
v 0.6 -0.5 0.1
v 0.6 -1.2 0.2
v 0.6 -0.6 0.2
v 0.7 -1.2 -0.1
v 0.7 -0.6 -0.1
v 0.7 -1.2 0.1
v 0.7 -0.6 0.1
v -0.2 -1.6 -0.1
v -0.2 -1.6 0.1
v 0.2 -1.6 -0.1
v 0.2 -1.6 0.1
v -0.3 -1.5 -0.1
v -0.3 -1.5 0.1
v -0.2 -1.5 -0.2
v -0.2 -1.5 -0.1
v -0.2 -1.5 0.1
v -0.2 -1.5 0.2
v 0.2 -1.5 -0.2
v 0.2 -1.5 -0.1
v 0.2 -1.5 0.1
v 0.2 -1.5 0.2
v 0.3 -1.5 -0.1
v 0.3 -1.5 0.1
v -0.5 -1.4 -0.1
v -0.5 -1.4 0.1
v -0.3 -1.4 -0.2
v -0.3 -1.4 -0.1
v -0.3 -1.4 0.1
v -0.3 -1.4 0.2
v -0.2 -1.4 -0.2
v -0.2 -1.4 -0.1
v -0.2 -1.4 0.1
v -0.2 -1.4 0.2
v 0.2 -1.4 -0.2
v 0.2 -1.4 -0.1
v 0.2 -1.4 0.1
v 0.2 -1.4 0.2
v 0.3 -1.4 -0.2
v 0.3 -1.4 -0.1
v 0.3 -1.4 0.1
v 0.3 -1.4 0.2
v 0.5 -1.4 -0.1
v 0.5 -1.4 0.1
v -0.6 -1.3 -0.1
v -0.6 -1.3 0.1
v -0.5 -1.3 -0.2
v -0.5 -1.3 -0.1
v -0.5 -1.3 0.1
v -0.5 -1.3 0.2
v -0.3 -1.3 -0.2
v -0.3 -1.3 -0.1
v -0.3 -1.3 0.1
v -0.3 -1.3 0.2
v 0.3 -1.3 -0.2
v 0.3 -1.3 -0.1
v 0.3 -1.3 0.1
v 0.3 -1.3 0.2
v 0.5 -1.3 -0.2
v 0.5 -1.3 -0.1
v 0.5 -1.3 0.1
v 0.5 -1.3 0.2
v 0.6 -1.3 -0.1
v 0.6 -1.3 0.1
v -0.7 -1.2 -0.1
v -0.7 -1.2 0.1
v -0.6 -1.2 -0.2
v -0.6 -1.2 -0.1
v -0.6 -1.2 0.1
v -0.6 -1.2 0.2
v -0.5 -1.2 -0.2
v -0.5 -1.2 -0.1
v -0.5 -1.2 0.1
v -0.5 -1.2 0.2
v 0.5 -1.2 -0.2
v 0.5 -1.2 -0.1
v 0.5 -1.2 0.1
v 0.5 -1.2 0.2
v 0.6 -1.2 -0.2
v 0.6 -1.2 -0.1
v 0.6 -1.2 0.1
v 0.6 -1.2 0.2
v 0.7 -1.2 -0.1
v 0.7 -1.2 0.1
v -0.2 -0.7 -0.2
v -0.2 -0.7 0.2
v 0.2 -0.7 -0.2
v 0.2 -0.7 0.2
v -0.6 0.5 -0.1
v -0.6 0.5 0.1
v -0.3 0.5 -0.1
v -0.3 0.5 0.1
v -0.7 0.6 -0.1
v -0.7 0.6 0.1
v -0.6 0.6 -0.2
v -0.6 0.6 -0.1
v -0.6 0.6 0.1
v -0.6 0.6 0.2
v -0.2 0.6 -0.2
v -0.2 0.6 -0.1
v -0.2 0.6 0.1
v -0.2 0.6 0.2
v -0.6 0.9 -0.1
v -0.6 0.9 0.1
v -0.2 0.9 -0.1
v -0.2 0.9 0.1
v -0.7 1 -0.1
v -0.7 1 0.1
v -0.6 1 -0.2
v -0.6 1 -0.1
v -0.6 1 0.1
v -0.6 1 0.2
v -0.1 1 -0.2
v -0.1 1 -0.1
v -0.1 1 0.1
v -0.1 1 0.2
v -0.6 1.3 -0.1
v -0.6 1.3 0.1
v -0.2 1.3 -0.1
v -0.2 1.3 0.1
v -0.7 1.4 -0.1
v -0.7 1.4 0.1
v -0.6 1.4 -0.2
v -0.6 1.4 -0.1
v -0.6 1.4 0.1
v -0.6 1.4 0.2
v -0.1 1.4 -0.2
v -0.1 1.4 -0.1
v -0.1 1.4 0.1
v -0.1 1.4 0.2
v -0.2 -1.1 -0.2
v -0.2 -1.1 0.2
v 0.2 -1.1 -0.2
v 0.2 -1.1 0.2
v -0.7 -0.6 -0.1
v -0.7 -0.6 0.1
v -0.6 -0.6 -0.2
v -0.6 -0.6 -0.1
v -0.6 -0.6 0.1
v -0.6 -0.6 0.2
v -0.4 -0.6 -0.2
v -0.4 -0.6 -0.1
v -0.4 -0.6 0.1
v -0.4 -0.6 0.2
v 0.4 -0.6 -0.2
v 0.4 -0.6 -0.1
v 0.4 -0.6 0.1
v 0.4 -0.6 0.2
v 0.6 -0.6 -0.2
v 0.6 -0.6 -0.1
v 0.6 -0.6 0.1
v 0.6 -0.6 0.2
v 0.7 -0.6 -0.1
v 0.7 -0.6 0.1
v -0.6 -0.5 -0.1
v -0.6 -0.5 0.1
v -0.5 -0.5 -0.1
v -0.5 -0.5 0.1
v 0.5 -0.5 -0.1
v 0.5 -0.5 0.1
v 0.6 -0.5 -0.1
v 0.6 -0.5 0.1
v -0.5 -0.4 -0.1
v -0.5 -0.4 0.1
v -0.4 -0.4 -0.2
v -0.4 -0.4 -0.1
v -0.4 -0.4 0.1
v -0.4 -0.4 0.2
v -0.2 -0.4 -0.2
v -0.2 -0.4 -0.1
v -0.2 -0.4 0.1
v -0.2 -0.4 0.2
v 0.2 -0.4 -0.2
v 0.2 -0.4 -0.1
v 0.2 -0.4 0.1
v 0.2 -0.4 0.2
v 0.4 -0.4 -0.2
v 0.4 -0.4 -0.1
v 0.4 -0.4 0.1
v 0.4 -0.4 0.2
v 0.5 -0.4 -0.1
v 0.5 -0.4 0.1
v -0.4 -0.3 -0.1
v -0.4 -0.3 0.1
v -0.3 -0.3 -0.1
v -0.3 -0.3 0.1
v 0.1 -0.3 -0.2
v 0.1 -0.3 -0.1
v 0.1 -0.3 0.1
v 0.1 -0.3 0.2
v 0.2 -0.3 -0.2
v 0.2 -0.3 -0.1
v 0.2 -0.3 0.1
v 0.2 -0.3 0.2
v 0.4 -0.3 -0.1
v 0.4 -0.3 0.1
v -0.6 0.7 -0.2
v -0.6 0.7 -0.1
v -0.6 0.7 0.1
v -0.6 0.7 0.2
v -0.1 0.7 -0.2
v -0.1 0.7 -0.1
v -0.1 0.7 0.1
v -0.1 0.7 0.2
v -0.7 0.8 -0.1
v -0.7 0.8 0.1
v -0.2 0.8 -0.1
v -0.2 0.8 0.1
v -0.6 1.1 -0.2
v -0.6 1.1 -0.1
v -0.6 1.1 0.1
v -0.6 1.1 0.2
v -0.1 1.1 -0.2
v -0.1 1.1 -0.1
v -0.1 1.1 0.1
v -0.1 1.1 0.2
v -0.7 1.2 -0.1
v -0.7 1.2 0.1
v -0.2 1.2 -0.1
v -0.2 1.2 0.1
v -0.6 1.5 -0.2
v -0.6 1.5 -0.1
v -0.6 1.5 0.1
v -0.6 1.5 0.2
v 0 1.5 -0.2
v 0 1.5 -0.1
v 0 1.5 0.1
v 0 1.5 0.2
v 0.1 1.5 -0.2
v 0.1 1.5 -0.1
v 0.1 1.5 0.1
v 0.1 1.5 0.2
v -0.7 1.6 -0.1
v -0.7 1.6 0.1
v 0.2 1.6 -0.1
v 0.2 1.6 0.1
v -0.2 -1.5 -0.2
v 0.2 -1.5 -0.2
v -0.3 -1.4 -0.2
v -0.2 -1.4 -0.2
v 0.2 -1.4 -0.2
v 0.3 -1.4 -0.2
v -0.5 -1.3 -0.2
v -0.3 -1.3 -0.2
v 0.3 -1.3 -0.2
v 0.5 -1.3 -0.2
v -0.6 -1.2 -0.2
v -0.5 -1.2 -0.2
v -0.2 -1.2 -0.2
v 0.2 -1.2 -0.2
v 0.3 -1.2 -0.2
v 0.4 -1.2 -0.2
v 0.5 -1.2 -0.2
v 0.6 -1.2 -0.2
v -0.3 -1.1 -0.2
v -0.2 -1.1 -0.2
v 0.2 -1.1 -0.2
v 0.3 -1.1 -0.2
v 0.4 -1.1 -0.2
v 0.5 -1.1 -0.2
v 0.4 -0.8 -0.2
v 0.5 -0.8 -0.2
v -0.3 -0.7 -0.2
v -0.2 -0.7 -0.2
v 0.2 -0.7 -0.2
v 0.3 -0.7 -0.2
v -0.6 -0.6 -0.2
v -0.4 -0.6 -0.2
v -0.2 -0.6 -0.2
v 0.2 -0.6 -0.2
v 0.3 -0.6 -0.2
v 0.4 -0.6 -0.2
v 0.6 -0.6 -0.2
v 0.1 -0.5 -0.2
v 0.3 -0.5 -0.2
v -0.4 -0.4 -0.2
v -0.2 -0.4 -0.2
v 0.2 -0.4 -0.2
v 0.4 -0.4 -0.2
v 0 -0.3 -0.2
v 0.1 -0.3 -0.2
v 0.2 -0.3 -0.2
v -0.6 0.6 -0.2
v -0.2 0.6 -0.2
v -0.6 0.7 -0.2
v -0.1 0.7 -0.2
v -0.6 1 -0.2
v -0.1 1 -0.2
v -0.6 1.1 -0.2
v -0.1 1.1 -0.2
v -0.6 1.4 -0.2
v -0.1 1.4 -0.2
v -0.6 1.5 -0.2
v 0 1.5 -0.2
v 0.1 1.5 -0.2
v -0.2 -1.6 -0.1
v 0.2 -1.6 -0.1
v -0.3 -1.5 -0.1
v -0.2 -1.5 -0.1
v 0.2 -1.5 -0.1
v 0.3 -1.5 -0.1
v -0.5 -1.4 -0.1
v -0.3 -1.4 -0.1
v -0.2 -1.4 -0.1
v 0.2 -1.4 -0.1
v 0.3 -1.4 -0.1
v 0.5 -1.4 -0.1
v -0.6 -1.3 -0.1
v -0.5 -1.3 -0.1
v -0.3 -1.3 -0.1
v 0.3 -1.3 -0.1
v 0.5 -1.3 -0.1
v 0.6 -1.3 -0.1
v -0.7 -1.2 -0.1
v -0.6 -1.2 -0.1
v -0.5 -1.2 -0.1
v 0.5 -1.2 -0.1
v 0.6 -1.2 -0.1
v 0.7 -1.2 -0.1
v -0.7 -0.6 -0.1
v -0.6 -0.6 -0.1
v -0.4 -0.6 -0.1
v 0.4 -0.6 -0.1
v 0.6 -0.6 -0.1
v 0.7 -0.6 -0.1
v -0.6 -0.5 -0.1
v -0.5 -0.5 -0.1
v 0.5 -0.5 -0.1
v 0.6 -0.5 -0.1
v -0.5 -0.4 -0.1
v -0.4 -0.4 -0.1
v -0.2 -0.4 -0.1
v 0.2 -0.4 -0.1
v 0.4 -0.4 -0.1
v 0.5 -0.4 -0.1
v -0.4 -0.3 -0.1
v -0.3 -0.3 -0.1
v 0.1 -0.3 -0.1
v 0.2 -0.3 -0.1
v 0.4 -0.3 -0.1
v -0.6 0.5 -0.1
v -0.3 0.5 -0.1
v -0.7 0.6 -0.1
v -0.6 0.6 -0.1
v -0.2 0.6 -0.1
v -0.6 0.7 -0.1
v -0.1 0.7 -0.1
v -0.7 0.8 -0.1
v -0.2 0.8 -0.1
v -0.6 0.9 -0.1
v -0.2 0.9 -0.1
v -0.7 1 -0.1
v -0.6 1 -0.1
v -0.1 1 -0.1
v -0.6 1.1 -0.1
v -0.1 1.1 -0.1
v -0.7 1.2 -0.1
v -0.2 1.2 -0.1
v -0.6 1.3 -0.1
v -0.2 1.3 -0.1
v -0.7 1.4 -0.1
v -0.6 1.4 -0.1
v -0.1 1.4 -0.1
v -0.6 1.5 -0.1
v 0 1.5 -0.1
v 0.1 1.5 -0.1
v -0.7 1.6 -0.1
v 0.2 1.6 -0.1
v -0.2 -1.6 0.1
v 0.2 -1.6 0.1
v -0.3 -1.5 0.1
v -0.2 -1.5 0.1
v 0.2 -1.5 0.1
v 0.3 -1.5 0.1
v -0.5 -1.4 0.1
v -0.3 -1.4 0.1
v -0.2 -1.4 0.1
v 0.2 -1.4 0.1
v 0.3 -1.4 0.1
v 0.5 -1.4 0.1
v -0.6 -1.3 0.1
v -0.5 -1.3 0.1
v -0.3 -1.3 0.1
v 0.3 -1.3 0.1
v 0.5 -1.3 0.1
v 0.6 -1.3 0.1
v -0.7 -1.2 0.1
v -0.6 -1.2 0.1
v -0.5 -1.2 0.1
v 0.5 -1.2 0.1
v 0.6 -1.2 0.1
v 0.7 -1.2 0.1
v -0.7 -0.6 0.1
v -0.6 -0.6 0.1
v -0.4 -0.6 0.1
v 0.4 -0.6 0.1
v 0.6 -0.6 0.1
v 0.7 -0.6 0.1
v -0.6 -0.5 0.1
v -0.5 -0.5 0.1
v 0.5 -0.5 0.1
v 0.6 -0.5 0.1
v -0.5 -0.4 0.1
v -0.4 -0.4 0.1
v -0.2 -0.4 0.1
v 0.2 -0.4 0.1
v 0.4 -0.4 0.1
v 0.5 -0.4 0.1
v -0.4 -0.3 0.1
v -0.3 -0.3 0.1
v 0.1 -0.3 0.1
v 0.2 -0.3 0.1
v 0.4 -0.3 0.1
v -0.6 0.5 0.1
v -0.3 0.5 0.1
v -0.7 0.6 0.1
v -0.6 0.6 0.1
v -0.2 0.6 0.1
v -0.6 0.7 0.1
v -0.1 0.7 0.1
v -0.7 0.8 0.1
v -0.2 0.8 0.1
v -0.6 0.9 0.1
v -0.2 0.9 0.1
v -0.7 1 0.1
v -0.6 1 0.1
v -0.1 1 0.1
v -0.6 1.1 0.1
v -0.1 1.1 0.1
v -0.7 1.2 0.1
v -0.2 1.2 0.1
v -0.6 1.3 0.1
v -0.2 1.3 0.1
v -0.7 1.4 0.1
v -0.6 1.4 0.1
v -0.1 1.4 0.1
v -0.6 1.5 0.1
v 0 1.5 0.1
v 0.1 1.5 0.1
v -0.7 1.6 0.1
v 0.2 1.6 0.1
v -0.2 -1.5 0.2
v 0.2 -1.5 0.2
v -0.3 -1.4 0.2
v -0.2 -1.4 0.2
v 0.2 -1.4 0.2
v 0.3 -1.4 0.2
v -0.5 -1.3 0.2
v -0.3 -1.3 0.2
v 0.3 -1.3 0.2
v 0.5 -1.3 0.2
v -0.6 -1.2 0.2
v -0.5 -1.2 0.2
v -0.2 -1.2 0.2
v 0.2 -1.2 0.2
v 0.3 -1.2 0.2
v 0.4 -1.2 0.2
v 0.5 -1.2 0.2
v 0.6 -1.2 0.2
v -0.3 -1.1 0.2
v -0.2 -1.1 0.2
v 0.2 -1.1 0.2
v 0.3 -1.1 0.2
v 0.4 -1.1 0.2
v 0.5 -1.1 0.2
v 0.4 -0.8 0.2
v 0.5 -0.8 0.2
v -0.3 -0.7 0.2
v -0.2 -0.7 0.2
v 0.2 -0.7 0.2
v 0.3 -0.7 0.2
v -0.6 -0.6 0.2
v -0.4 -0.6 0.2
v -0.2 -0.6 0.2
v 0.2 -0.6 0.2
v 0.3 -0.6 0.2
v 0.4 -0.6 0.2
v 0.6 -0.6 0.2
v 0.1 -0.5 0.2
v 0.3 -0.5 0.2
v -0.4 -0.4 0.2
v -0.2 -0.4 0.2
v 0.2 -0.4 0.2
v 0.4 -0.4 0.2
v 0 -0.3 0.2
v 0.1 -0.3 0.2
v 0.2 -0.3 0.2
v -0.6 0.6 0.2
v -0.2 0.6 0.2
v -0.6 0.7 0.2
v -0.1 0.7 0.2
v -0.6 1 0.2
v -0.1 1 0.2
v -0.6 1.1 0.2
v -0.1 1.1 0.2
v -0.6 1.4 0.2
v -0.1 1.4 0.2
v -0.6 1.5 0.2
v 0 1.5 0.2
v 0.1 1.5 0.2

# faces
f 9/2/1 2/2/1 1/2/1
f 10/2/1 2/2/1 9/2/1
f 11/2/1 4/2/1 3/2/1
f 12/2/1 4/2/1 11/2/1
f 13/2/1 6/2/1 5/2/1
f 14/2/1 6/2/1 13/2/1
f 15/2/1 8/2/1 7/2/1
f 16/2/1 8/2/1 15/2/1
f 26/3/1 18/3/1 17/3/1
f 27/3/1 18/3/1 26/3/1
f 30/3/1 20/3/1 19/3/1
f 31/3/1 20/3/1 30/3/1
f 33/3/1 22/3/1 21/3/1
f 34/3/1 22/3/1 33/3/1
f 36/3/1 24/3/1 23/3/1
f 37/3/1 24/3/1 36/3/1
f 38/2/1 26/2/1 25/2/1
f 39/2/1 26/2/1 38/2/1
f 40/2/1 28/2/1 27/2/1
f 41/2/1 28/2/1 40/2/1
f 42/2/1 30/2/1 29/2/1
f 43/2/1 30/2/1 42/2/1
f 45/2/1 33/2/1 32/2/1
f 46/2/1 33/2/1 45/2/1
f 48/2/1 36/2/1 35/2/1
f 49/2/1 36/2/1 48/2/1
f 51/3/1 40/3/1 39/3/1
f 52/3/1 40/3/1 51/3/1
f 53/3/1 44/3/1 43/3/1
f 54/3/1 44/3/1 53/3/1
f 55/3/1 47/3/1 46/3/1
f 56/3/1 47/3/1 55/3/1
f 57/3/1 50/3/1 49/3/1
f 58/3/1 50/3/1 57/3/1
f 62/3/1 60/3/1 59/3/1
f 63/3/1 60/3/1 62/3/1
f 66/2/1 62/2/1 61/2/1
f 67/2/1 62/2/1 66/2/1
f 69/2/1 65/2/1 64/2/1
f 70/2/1 65/2/1 69/2/1
f 71/3/1 68/3/1 67/3/1
f 72/3/1 68/3/1 71/3/1
f 75/3/1 74/3/1 73/3/1
f 76/3/1 74/3/1 75/3/1
f 79/2/1 77/2/1 76/2/1
f 80/2/1 77/2/1 79/2/1
f 81/3/1 79/3/1 78/3/1
f 82/3/1 79/3/1 81/3/1
f 86/3/1 84/3/1 83/3/1
f 87/3/1 84/3/1 86/3/1
f 90/2/1 86/2/1 85/2/1
f 91/2/1 86/2/1 90/2/1
f 93/2/1 89/2/1 88/2/1
f 94/2/1 89/2/1 93/2/1
f 95/3/1 92/3/1 91/3/1
f 96/3/1 92/3/1 95/3/1
f 102/3/1 98/3/1 97/3/1
f 103/3/1 98/3/1 102/3/1
f 104/3/1 100/3/1 99/3/1
f 105/3/1 100/3/1 104/3/1
f 110/2/1 102/2/1 101/2/1
f 111/2/1 102/2/1 110/2/1
f 115/2/1 107/2/1 106/2/1
f 116/2/1 107/2/1 115/2/1
f 117/2/1 109/2/1 108/2/1
f 118/2/1 109/2/1 117/2/1
f 119/3/1 112/3/1 111/3/1
f 120/3/1 112/3/1 119/3/1
f 121/3/1 114/3/1 113/3/1
f 122/3/1 114/3/1 121/3/1
f 127/3/1 124/3/1 123/3/1
f 128/3/1 124/3/1 127/3/1
f 129/3/1 126/3/1 125/3/1
f 130/3/1 126/3/1 129/3/1
f 135/3/1 132/3/1 131/3/1
f 136/3/1 132/3/1 135/3/1
f 137/3/1 134/3/1 133/3/1
f 138/3/1 134/3/1 137/3/1
f 141/2/1 140/2/1 139/2/1
f 142/2/1 140/2/1 141/2/1
f 143/2/2 144/2/2 145/2/2
f 145/2/2 144/2/2 146/2/2
f 147/1/2 148/1/2 149/1/2
f 149/1/2 148/1/2 150/1/2
f 151/1/2 152/1/2 153/1/2
f 153/1/2 152/1/2 154/1/2
f 155/3/2 156/3/2 160/3/2
f 160/3/2 156/3/2 161/3/2
f 157/1/2 158/1/2 162/1/2
f 162/1/2 158/1/2 163/1/2
f 159/2/2 160/2/2 165/2/2
f 165/2/2 160/2/2 166/2/2
f 163/2/2 164/2/2 169/2/2
f 169/2/2 164/2/2 170/2/2
f 166/3/2 167/3/2 171/3/2
f 171/3/2 167/3/2 172/3/2
f 168/1/2 169/1/2 173/1/2
f 173/1/2 169/1/2 174/1/2
f 175/1/2 176/1/2 178/1/2
f 178/1/2 176/1/2 179/1/2
f 177/2/2 178/2/2 180/2/2
f 180/2/2 178/2/2 181/2/2
f 181/1/2 182/1/2 183/1/2
f 183/1/2 182/1/2 184/1/2
f 185/1/2 186/1/2 187/1/2
f 187/1/2 186/1/2 188/1/2
f 188/2/2 189/2/2 191/2/2
f 191/2/2 189/2/2 192/2/2
f 190/1/2 191/1/2 193/1/2
f 193/1/2 191/1/2 194/1/2
f 195/1/2 196/1/2 198/1/2
f 198/1/2 196/1/2 199/1/2
f 197/2/2 198/2/2 202/2/2
f 202/2/2 198/2/2 203/2/2
f 200/2/2 201/2/2 205/2/2
f 205/2/2 201/2/2 206/2/2
f 203/1/2 204/1/2 207/1/2
f 207/1/2 204/1/2 208/1/2
f 209/1/2 210/1/2 212/1/2
f 212/1/2 210/1/2 213/1/2
f 211/2/2 212/2/2 215/2/2
f 215/2/2 212/2/2 216/2/2
f 213/2/2 214/2/2 217/2/2
f 217/2/2 214/2/2 218/2/2
f 216/1/2 217/1/2 219/1/2
f 219/1/2 217/1/2 220/1/2
f 221/2/2 222/2/2 223/2/2
f 223/2/2 222/2/2 224/2/2
f 227/2/3 226/2/3 225/2/3
f 228/2/3 226/2/3 227/2/3
f 232/2/3 230/2/3 229/2/3
f 233/2/3 230/2/3 232/2/3
f 235/3/3 232/3/3 231/3/3
f 236/3/3 232/3/3 235/3/3
f 237/3/3 234/3/3 233/3/3
f 238/3/3 234/3/3 237/3/3
f 239/2/3 237/2/3 236/2/3
f 240/2/3 237/2/3 239/2/3
f 244/2/3 242/2/3 241/2/3
f 245/2/3 242/2/3 244/2/3
f 247/3/3 244/3/3 243/3/3
f 248/3/3 244/3/3 247/3/3
f 249/3/3 246/3/3 245/3/3
f 250/3/3 246/3/3 249/3/3
f 255/1/3 252/1/3 251/1/3
f 256/1/3 252/1/3 255/1/3
f 257/1/3 254/1/3 253/1/3
f 258/1/3 254/1/3 257/1/3
f 259/2/3 257/2/3 256/2/3
f 260/2/3 257/2/3 259/2/3
f 264/2/3 262/2/3 261/2/3
f 265/2/3 262/2/3 264/2/3
f 267/3/3 264/3/3 263/3/3
f 268/3/3 264/3/3 267/3/3
f 269/3/3 266/3/3 265/3/3
f 270/3/3 266/3/3 269/3/3
f 275/1/3 272/1/3 271/1/3
f 276/1/3 272/1/3 275/1/3
f 277/1/3 274/1/3 273/1/3
f 278/1/3 274/1/3 277/1/3
f 279/2/3 277/2/3 276/2/3
f 280/2/3 277/2/3 279/2/3
f 284/2/3 282/2/3 281/2/3
f 285/2/3 282/2/3 284/2/3
f 287/3/3 284/3/3 283/3/3
f 288/3/3 284/3/3 287/3/3
f 289/3/3 286/3/3 285/3/3
f 290/3/3 286/3/3 289/3/3
f 295/1/3 292/1/3 291/1/3
f 296/1/3 292/1/3 295/1/3
f 297/1/3 294/1/3 293/1/3
f 298/1/3 294/1/3 297/1/3
f 299/2/3 297/2/3 296/2/3
f 300/2/3 297/2/3 299/2/3
f 303/2/3 302/2/3 301/2/3
f 304/2/3 302/2/3 303/2/3
f 307/2/3 306/2/3 305/2/3
f 308/2/3 306/2/3 307/2/3
f 312/2/3 310/2/3 309/2/3
f 313/2/3 310/2/3 312/2/3
f 315/3/3 312/3/3 311/3/3
f 316/3/3 312/3/3 315/3/3
f 317/3/3 314/3/3 313/3/3
f 318/3/3 314/3/3 317/3/3
f 321/2/3 320/2/3 319/2/3
f 322/2/3 320/2/3 321/2/3
f 326/2/3 324/2/3 323/2/3
f 327/2/3 324/2/3 326/2/3
f 329/3/3 326/3/3 325/3/3
f 330/3/3 326/3/3 329/3/3
f 331/3/3 328/3/3 327/3/3
f 332/3/3 328/3/3 331/3/3
f 335/2/3 334/2/3 333/2/3
f 336/2/3 334/2/3 335/2/3
f 340/2/3 338/2/3 337/2/3
f 341/2/3 338/2/3 340/2/3
f 343/3/3 340/3/3 339/3/3
f 344/3/3 340/3/3 343/3/3
f 345/3/3 342/3/3 341/3/3
f 346/3/3 342/3/3 345/3/3
f 347/2/4 348/2/4 349/2/4
f 349/2/4 348/2/4 350/2/4
f 351/2/4 352/2/4 354/2/4
f 354/2/4 352/2/4 355/2/4
f 353/3/4 354/3/4 357/3/4
f 357/3/4 354/3/4 358/3/4
f 355/3/4 356/3/4 359/3/4
f 359/3/4 356/3/4 360/3/4
f 361/1/4 362/1/4 365/1/4
f 365/1/4 362/1/4 366/1/4
f 363/1/4 364/1/4 367/1/4
f 367/1/4 364/1/4 368/1/4
f 366/2/4 367/2/4 369/2/4
f 369/2/4 367/2/4 370/2/4
f 371/2/4 372/2/4 373/2/4
f 373/2/4 372/2/4 374/2/4
f 375/2/4 376/2/4 377/2/4
f 377/2/4 376/2/4 378/2/4
f 379/2/4 380/2/4 382/2/4
f 382/2/4 380/2/4 383/2/4
f 381/3/4 382/3/4 385/3/4
f 385/3/4 382/3/4 386/3/4
f 383/3/4 384/3/4 387/3/4
f 387/3/4 384/3/4 388/3/4
f 389/1/4 390/1/4 393/1/4
f 393/1/4 390/1/4 394/1/4
f 391/1/4 392/1/4 395/1/4
f 395/1/4 392/1/4 396/1/4
f 394/2/4 395/2/4 397/2/4
f 397/2/4 395/2/4 398/2/4
f 399/2/4 400/2/4 401/2/4
f 401/2/4 400/2/4 402/2/4
f 403/1/4 404/1/4 407/1/4
f 407/1/4 404/1/4 408/1/4
f 405/1/4 406/1/4 409/1/4
f 409/1/4 406/1/4 410/1/4
f 408/2/4 409/2/4 411/2/4
f 411/2/4 409/2/4 412/2/4
f 413/3/4 414/3/4 417/3/4
f 417/3/4 414/3/4 418/3/4
f 415/3/4 416/3/4 419/3/4
f 419/3/4 416/3/4 420/3/4
f 421/2/4 422/2/4 423/2/4
f 423/2/4 422/2/4 424/2/4
f 425/3/4 426/3/4 429/3/4
f 429/3/4 426/3/4 430/3/4
f 427/3/4 428/3/4 431/3/4
f 431/3/4 428/3/4 432/3/4
f 433/2/4 434/2/4 435/2/4
f 435/2/4 434/2/4 436/2/4
f 437/3/4 438/3/4 441/3/4
f 441/3/4 438/3/4 442/3/4
f 439/3/4 440/3/4 443/3/4
f 443/3/4 440/3/4 444/3/4
f 441/1/4 442/1/4 445/1/4
f 445/1/4 442/1/4 446/1/4
f 443/1/4 444/1/4 447/1/4
f 447/1/4 444/1/4 448/1/4
f 449/2/4 450/2/4 451/2/4
f 451/2/4 450/2/4 452/2/4
f 456/3/5 454/3/5 453/3/5
f 457/3/5 454/3/5 456/3/5
f 460/3/5 456/3/5 455/3/5
f 460/3/5 457/3/5 456/3/5
f 461/1/5 458/1/5 457/1/5
f 464/3/5 460/3/5 459/3/5
f 465/3/5 457/3/5 460/3/5
f 465/3/5 460/3/5 464/3/5
f 466/1/5 462/1/5 461/1/5
f 466/3/5 457/3/5 465/3/5
f 466/1/5 461/1/5 457/1/5
f 467/1/5 462/1/5 466/1/5
f 468/1/5 462/1/5 467/1/5
f 469/1/5 462/1/5 468/1/5
f 471/3/5 465/3/5 464/3/5
f 471/3/5 464/3/5 463/3/5
f 472/2/5 466/2/5 465/2/5
f 472/3/5 465/3/5 471/3/5
f 473/1/5 467/1/5 466/1/5
f 473/2/5 466/2/5 472/2/5
f 474/3/5 468/3/5 467/3/5
f 474/1/5 467/1/5 473/1/5
f 475/1/5 470/1/5 469/1/5
f 475/3/5 468/3/5 474/3/5
f 475/1/5 469/1/5 468/1/5
f 476/1/5 470/1/5 475/1/5
f 477/3/5 475/3/5 474/3/5
f 477/3/5 476/3/5 475/3/5
f 478/1/5 470/1/5 476/1/5
f 478/3/5 476/3/5 477/3/5
f 479/3/5 471/3/5 463/3/5
f 479/2/5 472/2/5 471/2/5
f 480/2/5 472/2/5 479/2/5
f 481/2/5 474/2/5 473/2/5
f 482/3/5 477/3/5 474/3/5
f 482/2/5 474/2/5 481/2/5
f 483/3/5 480/3/5 479/3/5
f 483/3/5 479/3/5 463/3/5
f 484/3/5 480/3/5 483/3/5
f 485/2/5 481/2/5 480/2/5
f 485/3/5 480/3/5 484/3/5
f 486/3/5 482/3/5 481/3/5
f 486/2/5 481/2/5 485/2/5
f 487/3/5 477/3/5 482/3/5
f 487/3/5 482/3/5 486/3/5
f 488/1/5 478/1/5 477/1/5
f 488/3/5 477/3/5 487/3/5
f 489/1/5 470/1/5 478/1/5
f 489/1/5 478/1/5 488/1/5
f 490/3/5 486/3/5 485/3/5
f 490/3/5 487/3/5 486/3/5
f 490/3/5 485/3/5 484/3/5
f 491/1/5 488/1/5 487/1/5
f 491/3/5 487/3/5 490/3/5
f 492/3/5 490/3/5 484/3/5
f 493/3/5 490/3/5 492/3/5
f 494/1/5 491/1/5 490/1/5
f 495/1/5 488/1/5 491/1/5
f 495/1/5 491/1/5 494/1/5
f 496/3/5 490/3/5 493/3/5
f 497/1/5 494/1/5 490/1/5
f 497/3/5 490/3/5 496/3/5
f 498/1/5 494/1/5 497/1/5
f 500/3/5 496/3/5 493/3/5
f 501/3/5 500/3/5 499/3/5
f 502/3/5 496/3/5 500/3/5
f 502/3/5 500/3/5 501/3/5
f 504/3/5 496/3/5 502/3/5
f 505/3/5 504/3/5 503/3/5
f 506/3/5 496/3/5 504/3/5
f 506/3/5 504/3/5 505/3/5
f 508/3/5 496/3/5 506/3/5
f 509/3/5 508/3/5 507/3/5
f 510/1/5 497/1/5 496/1/5
f 510/3/5 508/3/5 509/3/5
f 510/3/5 496/3/5 508/3/5
f 511/1/5 497/1/5 510/1/5
f 515/2/5 513/2/5 512/2/5
f 516/2/5 513/2/5 515/2/5
f 519/2/5 515/2/5 514/2/5
f 520/2/5 515/2/5 519/2/5
f 521/2/5 517/2/5 516/2/5
f 522/2/5 517/2/5 521/2/5
f 525/2/5 519/2/5 518/2/5
f 526/2/5 519/2/5 525/2/5
f 527/2/5 523/2/5 522/2/5
f 528/2/5 523/2/5 527/2/5
f 531/2/5 525/2/5 524/2/5
f 532/2/5 525/2/5 531/2/5
f 533/2/5 529/2/5 528/2/5
f 534/2/5 529/2/5 533/2/5
f 536/2/5 531/2/5 530/2/5
f 537/2/5 531/2/5 536/2/5
f 540/2/5 535/2/5 534/2/5
f 541/2/5 535/2/5 540/2/5
f 542/2/5 538/2/5 537/2/5
f 543/2/5 538/2/5 542/2/5
f 544/2/5 540/2/5 539/2/5
f 545/2/5 540/2/5 544/2/5
f 546/2/5 538/2/5 543/2/5
f 547/2/5 538/2/5 546/2/5
f 550/2/5 544/2/5 539/2/5
f 551/2/5 544/2/5 550/2/5
f 552/2/5 548/2/5 547/2/5
f 553/2/5 548/2/5 552/2/5
f 555/2/5 550/2/5 549/2/5
f 556/2/5 550/2/5 555/2/5
f 558/2/5 548/2/5 553/2/5
f 560/2/5 558/2/5 557/2/5
f 561/2/5 548/2/5 558/2/5
f 561/2/5 558/2/5 560/2/5
f 562/2/5 560/2/5 559/2/5
f 564/2/5 562/2/5 559/2/5
f 564/2/5 563/2/5 562/2/5
f 565/2/5 563/2/5 564/2/5
f 567/2/5 563/2/5 565/2/5
f 569/2/5 567/2/5 566/2/5
f 570/2/5 563/2/5 567/2/5
f 570/2/5 567/2/5 569/2/5
f 571/2/5 569/2/5 568/2/5
f 573/2/5 571/2/5 568/2/5
f 573/2/5 572/2/5 571/2/5
f 574/2/5 572/2/5 573/2/5
f 576/2/5 572/2/5 574/2/5
f 578/2/5 576/2/5 575/2/5
f 579/2/5 572/2/5 576/2/5
f 579/2/5 576/2/5 578/2/5
f 580/2/5 578/2/5 577/2/5
f 582/2/5 555/2/5 554/2/5
f 583/2/5 581/2/5 580/2/5
f 583/2/5 582/2/5 581/2/5
f 583/2/5 580/2/5 577/2/5
f 584/2/5 555/2/5 582/2/5
f 584/2/5 582/2/5 583/2/5
f 585/2/6 586/2/6 588/2/6
f 588/2/6 586/2/6 589/2/6
f 587/2/6 588/2/6 592/2/6
f 592/2/6 588/2/6 593/2/6
f 589/2/6 590/2/6 594/2/6
f 594/2/6 590/2/6 595/2/6
f 591/2/6 592/2/6 598/2/6
f 598/2/6 592/2/6 599/2/6
f 595/2/6 596/2/6 600/2/6
f 600/2/6 596/2/6 601/2/6
f 597/2/6 598/2/6 604/2/6
f 604/2/6 598/2/6 605/2/6
f 601/2/6 602/2/6 606/2/6
f 606/2/6 602/2/6 607/2/6
f 603/2/6 604/2/6 609/2/6
f 609/2/6 604/2/6 610/2/6
f 607/2/6 608/2/6 613/2/6
f 613/2/6 608/2/6 614/2/6
f 610/2/6 611/2/6 615/2/6
f 615/2/6 611/2/6 616/2/6
f 612/2/6 613/2/6 617/2/6
f 617/2/6 613/2/6 618/2/6
f 616/2/6 611/2/6 619/2/6
f 619/2/6 611/2/6 620/2/6
f 612/2/6 617/2/6 623/2/6
f 623/2/6 617/2/6 624/2/6
f 620/2/6 621/2/6 625/2/6
f 625/2/6 621/2/6 626/2/6
f 622/2/6 623/2/6 628/2/6
f 628/2/6 623/2/6 629/2/6
f 626/2/6 621/2/6 631/2/6
f 630/2/6 631/2/6 633/2/6
f 631/2/6 621/2/6 634/2/6
f 633/2/6 631/2/6 634/2/6
f 632/2/6 633/2/6 635/2/6
f 632/2/6 635/2/6 637/2/6
f 635/2/6 636/2/6 637/2/6
f 637/2/6 636/2/6 638/2/6
f 638/2/6 636/2/6 640/2/6
f 639/2/6 640/2/6 642/2/6
f 640/2/6 636/2/6 643/2/6
f 642/2/6 640/2/6 643/2/6
f 641/2/6 642/2/6 644/2/6
f 641/2/6 644/2/6 646/2/6
f 644/2/6 645/2/6 646/2/6
f 646/2/6 645/2/6 647/2/6
f 647/2/6 645/2/6 649/2/6
f 648/2/6 649/2/6 651/2/6
f 649/2/6 645/2/6 652/2/6
f 651/2/6 649/2/6 652/2/6
f 650/2/6 651/2/6 653/2/6
f 627/2/6 628/2/6 655/2/6
f 653/2/6 654/2/6 656/2/6
f 654/2/6 655/2/6 656/2/6
f 650/2/6 653/2/6 656/2/6
f 655/2/6 628/2/6 657/2/6
f 656/2/6 655/2/6 657/2/6
f 658/3/6 659/3/6 661/3/6
f 661/3/6 659/3/6 662/3/6
f 660/3/6 661/3/6 665/3/6
f 661/3/6 662/3/6 665/3/6
f 662/1/6 663/1/6 666/1/6
f 664/3/6 665/3/6 669/3/6
f 665/3/6 662/3/6 670/3/6
f 669/3/6 665/3/6 670/3/6
f 666/1/6 667/1/6 671/1/6
f 670/3/6 662/3/6 671/3/6
f 662/1/6 666/1/6 671/1/6
f 671/1/6 667/1/6 672/1/6
f 672/1/6 667/1/6 673/1/6
f 673/1/6 667/1/6 674/1/6
f 669/3/6 670/3/6 676/3/6
f 668/3/6 669/3/6 676/3/6
f 670/2/6 671/2/6 677/2/6
f 676/3/6 670/3/6 677/3/6
f 671/1/6 672/1/6 678/1/6
f 677/2/6 671/2/6 678/2/6
f 672/3/6 673/3/6 679/3/6
f 678/1/6 672/1/6 679/1/6
f 674/1/6 675/1/6 680/1/6
f 679/3/6 673/3/6 680/3/6
f 673/1/6 674/1/6 680/1/6
f 680/1/6 675/1/6 681/1/6
f 679/3/6 680/3/6 682/3/6
f 680/3/6 681/3/6 682/3/6
f 681/1/6 675/1/6 683/1/6
f 682/3/6 681/3/6 683/3/6
f 668/3/6 676/3/6 684/3/6
f 676/2/6 677/2/6 684/2/6
f 684/2/6 677/2/6 685/2/6
f 678/2/6 679/2/6 686/2/6
f 679/3/6 682/3/6 687/3/6
f 686/2/6 679/2/6 687/2/6
f 684/3/6 685/3/6 688/3/6
f 668/3/6 684/3/6 688/3/6
f 688/3/6 685/3/6 689/3/6
f 685/2/6 686/2/6 690/2/6
f 689/3/6 685/3/6 690/3/6
f 686/3/6 687/3/6 691/3/6
f 690/2/6 686/2/6 691/2/6
f 687/3/6 682/3/6 692/3/6
f 691/3/6 687/3/6 692/3/6
f 682/1/6 683/1/6 693/1/6
f 692/3/6 682/3/6 693/3/6
f 683/1/6 675/1/6 694/1/6
f 693/1/6 683/1/6 694/1/6
f 690/3/6 691/3/6 695/3/6
f 691/3/6 692/3/6 695/3/6
f 689/3/6 690/3/6 695/3/6
f 692/1/6 693/1/6 696/1/6
f 695/3/6 692/3/6 696/3/6
f 689/3/6 695/3/6 697/3/6
f 697/3/6 695/3/6 698/3/6
f 695/1/6 696/1/6 699/1/6
f 696/1/6 693/1/6 700/1/6
f 699/1/6 696/1/6 700/1/6
f 698/3/6 695/3/6 701/3/6
f 695/1/6 699/1/6 702/1/6
f 701/3/6 695/3/6 702/3/6
f 702/1/6 699/1/6 703/1/6
f 698/3/6 701/3/6 705/3/6
f 704/3/6 705/3/6 706/3/6
f 705/3/6 701/3/6 707/3/6
f 706/3/6 705/3/6 707/3/6
f 707/3/6 701/3/6 709/3/6
f 708/3/6 709/3/6 710/3/6
f 709/3/6 701/3/6 711/3/6
f 710/3/6 709/3/6 711/3/6
f 711/3/6 701/3/6 713/3/6
f 712/3/6 713/3/6 714/3/6
f 701/1/6 702/1/6 715/1/6
f 714/3/6 713/3/6 715/3/6
f 713/3/6 701/3/6 715/3/6
f 715/1/6 702/1/6 716/1/6
