# MagicaVoxel @ Ephtracy

# group
o key-blue-icon

# material
mtllib green-key.mtl
usemtl palette

# normals
vn -1 0 0
vn 1 0 0
vn 0 -1 0
vn 0 1 0
vn 0 0 -1
vn 0 0 1

# texcoords
vt 0.583984 0.5
vt 0.744141 0.5
vt 0.876953 0.5

# verts
v -0.7 -1.2 -0.1
v -0.7 -0.6 -0.1
v -0.7 0.6 -0.1
v -0.7 0.8 -0.1
v -0.7 1 -0.1
v -0.7 1.2 -0.1
v -0.7 1.4 -0.1
v -0.7 1.6 -0.1
v -0.7 -1.2 0.1
v -0.7 -0.6 0.1
v -0.7 0.6 0.1
v -0.7 0.8 0.1
v -0.7 1 0.1
v -0.7 1.2 0.1
v -0.7 1.4 0.1
v -0.7 1.6 0.1
v -0.6 -1.2 -0.2
v -0.6 -0.6 -0.2
v -0.6 0.6 -0.2
v -0.6 0.7 -0.2
v -0.6 1 -0.2
v -0.6 1.1 -0.2
v -0.6 1.4 -0.2
v -0.6 1.5 -0.2
v -0.6 -1.3 -0.1
v -0.6 -1.2 -0.1
v -0.6 -0.6 -0.1
v -0.6 -0.5 -0.1
v -0.6 0.5 -0.1
v -0.6 0.6 -0.1
v -0.6 0.7 -0.1
v -0.6 0.9 -0.1
v -0.6 1 -0.1
v -0.6 1.1 -0.1
v -0.6 1.3 -0.1
v -0.6 1.4 -0.1
v -0.6 1.5 -0.1
v -0.6 -1.3 0.1
v -0.6 -1.2 0.1
v -0.6 -0.6 0.1
v -0.6 -0.5 0.1
v -0.6 0.5 0.1
v -0.6 0.6 0.1
v -0.6 0.7 0.1
v -0.6 0.9 0.1
v -0.6 1 0.1
v -0.6 1.1 0.1
v -0.6 1.3 0.1
v -0.6 1.4 0.1
v -0.6 1.5 0.1
v -0.6 -1.2 0.2
v -0.6 -0.6 0.2
v -0.6 0.6 0.2
v -0.6 0.7 0.2
v -0.6 1 0.2
v -0.6 1.1 0.2
v -0.6 1.4 0.2
v -0.6 1.5 0.2
v -0.5 -1.3 -0.2
v -0.5 -1.2 -0.2
v -0.5 -1.4 -0.1
v -0.5 -1.3 -0.1
v -0.5 -1.2 -0.1
v -0.5 -0.5 -0.1
v -0.5 -0.4 -0.1
v -0.5 -1.4 0.1
v -0.5 -1.3 0.1
v -0.5 -1.2 0.1
v -0.5 -0.5 0.1
v -0.5 -0.4 0.1
v -0.5 -1.3 0.2
v -0.5 -1.2 0.2
v -0.4 -0.6 -0.2
v -0.4 -0.4 -0.2
v -0.4 -0.6 -0.1
v -0.4 -0.4 -0.1
v -0.4 -0.3 -0.1
v -0.4 -0.6 0.1
v -0.4 -0.4 0.1
v -0.4 -0.3 0.1
v -0.4 -0.6 0.2
v -0.4 -0.4 0.2
v -0.3 -1.4 -0.2
v -0.3 -1.3 -0.2
v -0.3 -1.5 -0.1
v -0.3 -1.4 -0.1
v -0.3 -1.3 -0.1
v -0.3 -0.3 -0.1
v -0.3 0.5 -0.1
v -0.3 -1.5 0.1
v -0.3 -1.4 0.1
v -0.3 -1.3 0.1
v -0.3 -0.3 0.1
v -0.3 0.5 0.1
v -0.3 -1.4 0.2
v -0.3 -1.3 0.2
v -0.2 -1.5 -0.2
v -0.2 -1.4 -0.2
v -0.2 -0.4 -0.2
v -0.2 0.6 -0.2
v -0.2 -1.6 -0.1
v -0.2 -1.5 -0.1
v -0.2 -1.4 -0.1
v -0.2 -0.4 -0.1
v -0.2 0.6 -0.1
v -0.2 0.8 -0.1
v -0.2 0.9 -0.1
v -0.2 1.2 -0.1
v -0.2 1.3 -0.1
v -0.2 -1.6 0.1
v -0.2 -1.5 0.1
v -0.2 -1.4 0.1
v -0.2 -0.4 0.1
v -0.2 0.6 0.1
v -0.2 0.8 0.1
v -0.2 0.9 0.1
v -0.2 1.2 0.1
v -0.2 1.3 0.1
v -0.2 -1.5 0.2
v -0.2 -1.4 0.2
v -0.2 -0.4 0.2
v -0.2 0.6 0.2
v -0.1 0.7 -0.2
v -0.1 1 -0.2
v -0.1 1.1 -0.2
v -0.1 1.4 -0.2
v -0.1 0.7 -0.1
v -0.1 1 -0.1
v -0.1 1.1 -0.1
v -0.1 1.4 -0.1
v -0.1 0.7 0.1
v -0.1 1 0.1
v -0.1 1.1 0.1
v -0.1 1.4 0.1
v -0.1 0.7 0.2
v -0.1 1 0.2
v -0.1 1.1 0.2
v -0.1 1.4 0.2
v 0.2 -1.1 -0.2
v 0.2 -0.7 -0.2
v 0.2 -1.1 0.2
v 0.2 -0.7 0.2
v -0.2 -1.1 -0.2
v -0.2 -0.7 -0.2
v -0.2 -1.1 0.2
v -0.2 -0.7 0.2
v 0.1 -0.3 -0.2
v 0.1 1.5 -0.2
v 0.1 -0.3 -0.1
v 0.1 1.5 -0.1
v 0.1 -0.3 0.1
v 0.1 1.5 0.1
v 0.1 -0.3 0.2
v 0.1 1.5 0.2
v 0.2 -1.5 -0.2
v 0.2 -1.4 -0.2
v 0.2 -0.4 -0.2
v 0.2 -0.3 -0.2
v 0.2 -1.6 -0.1
v 0.2 -1.5 -0.1
v 0.2 -1.4 -0.1
v 0.2 -0.4 -0.1
v 0.2 -0.3 -0.1
v 0.2 1.6 -0.1
v 0.2 -1.6 0.1
v 0.2 -1.5 0.1
v 0.2 -1.4 0.1
v 0.2 -0.4 0.1
v 0.2 -0.3 0.1
v 0.2 1.6 0.1
v 0.2 -1.5 0.2
v 0.2 -1.4 0.2
v 0.2 -0.4 0.2
v 0.2 -0.3 0.2
v 0.3 -1.4 -0.2
v 0.3 -1.3 -0.2
v 0.3 -1.5 -0.1
v 0.3 -1.4 -0.1
v 0.3 -1.3 -0.1
v 0.3 -1.5 0.1
v 0.3 -1.4 0.1
v 0.3 -1.3 0.1
v 0.3 -1.4 0.2
v 0.3 -1.3 0.2
v 0.4 -0.6 -0.2
v 0.4 -0.4 -0.2
v 0.4 -0.6 -0.1
v 0.4 -0.4 -0.1
v 0.4 -0.3 -0.1
v 0.4 -0.6 0.1
v 0.4 -0.4 0.1
v 0.4 -0.3 0.1
v 0.4 -0.6 0.2
v 0.4 -0.4 0.2
v 0.5 -1.3 -0.2
v 0.5 -1.2 -0.2
v 0.5 -1.4 -0.1
v 0.5 -1.3 -0.1
v 0.5 -1.2 -0.1
v 0.5 -0.5 -0.1
v 0.5 -0.4 -0.1
v 0.5 -1.4 0.1
v 0.5 -1.3 0.1
v 0.5 -1.2 0.1
v 0.5 -0.5 0.1
v 0.5 -0.4 0.1
v 0.5 -1.3 0.2
v 0.5 -1.2 0.2
v 0.6 -1.2 -0.2
v 0.6 -0.6 -0.2
v 0.6 -1.3 -0.1
v 0.6 -1.2 -0.1
v 0.6 -0.6 -0.1
v 0.6 -0.5 -0.1
v 0.6 -1.3 0.1
v 0.6 -1.2 0.1
v 0.6 -0.6 0.1
v 0.6 -0.5 0.1
v 0.6 -1.2 0.2
v 0.6 -0.6 0.2
v 0.7 -1.2 -0.1
v 0.7 -0.6 -0.1
v 0.7 -1.2 0.1
v 0.7 -0.6 0.1
v -0.2 -1.6 -0.1
v -0.2 -1.6 0.1
v 0.2 -1.6 -0.1
v 0.2 -1.6 0.1
v -0.3 -1.5 -0.1
v -0.3 -1.5 0.1
v -0.2 -1.5 -0.2
v -0.2 -1.5 -0.1
v -0.2 -1.5 0.1
v -0.2 -1.5 0.2
v 0.2 -1.5 -0.2
v 0.2 -1.5 -0.1
v 0.2 -1.5 0.1
v 0.2 -1.5 0.2
v 0.3 -1.5 -0.1
v 0.3 -1.5 0.1
v -0.5 -1.4 -0.1
v -0.5 -1.4 0.1
v -0.3 -1.4 -0.2
v -0.3 -1.4 -0.1
v -0.3 -1.4 0.1
v -0.3 -1.4 0.2
v -0.2 -1.4 -0.2
v -0.2 -1.4 -0.1
v -0.2 -1.4 0.1
v -0.2 -1.4 0.2
v 0.2 -1.4 -0.2
v 0.2 -1.4 -0.1
v 0.2 -1.4 0.1
v 0.2 -1.4 0.2
v 0.3 -1.4 -0.2
v 0.3 -1.4 -0.1
v 0.3 -1.4 0.1
v 0.3 -1.4 0.2
v 0.5 -1.4 -0.1
v 0.5 -1.4 0.1
v -0.6 -1.3 -0.1
v -0.6 -1.3 0.1
v -0.5 -1.3 -0.2
v -0.5 -1.3 -0.1
v -0.5 -1.3 0.1
v -0.5 -1.3 0.2
v -0.3 -1.3 -0.2
v -0.3 -1.3 -0.1
v -0.3 -1.3 0.1
v -0.3 -1.3 0.2
v 0.3 -1.3 -0.2
v 0.3 -1.3 -0.1
v 0.3 -1.3 0.1
v 0.3 -1.3 0.2
v 0.5 -1.3 -0.2
v 0.5 -1.3 -0.1
v 0.5 -1.3 0.1
v 0.5 -1.3 0.2
v 0.6 -1.3 -0.1
v 0.6 -1.3 0.1
v -0.7 -1.2 -0.1
v -0.7 -1.2 0.1
v -0.6 -1.2 -0.2
v -0.6 -1.2 -0.1
v -0.6 -1.2 0.1
v -0.6 -1.2 0.2
v -0.5 -1.2 -0.2
v -0.5 -1.2 -0.1
v -0.5 -1.2 0.1
v -0.5 -1.2 0.2
v 0.5 -1.2 -0.2
v 0.5 -1.2 -0.1
v 0.5 -1.2 0.1
v 0.5 -1.2 0.2
v 0.6 -1.2 -0.2
v 0.6 -1.2 -0.1
v 0.6 -1.2 0.1
v 0.6 -1.2 0.2
v 0.7 -1.2 -0.1
v 0.7 -1.2 0.1
v -0.2 -0.7 -0.2
v -0.2 -0.7 0.2
v 0.2 -0.7 -0.2
v 0.2 -0.7 0.2
v -0.6 0.5 -0.1
v -0.6 0.5 0.1
v -0.3 0.5 -0.1
v -0.3 0.5 0.1
v -0.7 0.6 -0.1
v -0.7 0.6 0.1
v -0.6 0.6 -0.2
v -0.6 0.6 -0.1
v -0.6 0.6 0.1
v -0.6 0.6 0.2
v -0.2 0.6 -0.2
v -0.2 0.6 -0.1
v -0.2 0.6 0.1
v -0.2 0.6 0.2
v -0.6 0.9 -0.1
v -0.6 0.9 0.1
v -0.2 0.9 -0.1
v -0.2 0.9 0.1
v -0.7 1 -0.1
v -0.7 1 0.1
v -0.6 1 -0.2
v -0.6 1 -0.1
v -0.6 1 0.1
v -0.6 1 0.2
v -0.1 1 -0.2
v -0.1 1 -0.1
v -0.1 1 0.1
v -0.1 1 0.2
v -0.6 1.3 -0.1
v -0.6 1.3 0.1
v -0.2 1.3 -0.1
v -0.2 1.3 0.1
v -0.7 1.4 -0.1
v -0.7 1.4 0.1
v -0.6 1.4 -0.2
v -0.6 1.4 -0.1
v -0.6 1.4 0.1
v -0.6 1.4 0.2
v -0.1 1.4 -0.2
v -0.1 1.4 -0.1
v -0.1 1.4 0.1
v -0.1 1.4 0.2
v -0.2 -1.1 -0.2
v -0.2 -1.1 0.2
v 0.2 -1.1 -0.2
v 0.2 -1.1 0.2
v -0.7 -0.6 -0.1
v -0.7 -0.6 0.1
v -0.6 -0.6 -0.2
v -0.6 -0.6 -0.1
v -0.6 -0.6 0.1
v -0.6 -0.6 0.2
v -0.4 -0.6 -0.2
v -0.4 -0.6 -0.1
v -0.4 -0.6 0.1
v -0.4 -0.6 0.2
v 0.4 -0.6 -0.2
v 0.4 -0.6 -0.1
v 0.4 -0.6 0.1
v 0.4 -0.6 0.2
v 0.6 -0.6 -0.2
v 0.6 -0.6 -0.1
v 0.6 -0.6 0.1
v 0.6 -0.6 0.2
v 0.7 -0.6 -0.1
v 0.7 -0.6 0.1
v -0.6 -0.5 -0.1
v -0.6 -0.5 0.1
v -0.5 -0.5 -0.1
v -0.5 -0.5 0.1
v 0.5 -0.5 -0.1
v 0.5 -0.5 0.1
v 0.6 -0.5 -0.1
v 0.6 -0.5 0.1
v -0.5 -0.4 -0.1
v -0.5 -0.4 0.1
v -0.4 -0.4 -0.2
v -0.4 -0.4 -0.1
v -0.4 -0.4 0.1
v -0.4 -0.4 0.2
v -0.2 -0.4 -0.2
v -0.2 -0.4 -0.1
v -0.2 -0.4 0.1
v -0.2 -0.4 0.2
v 0.2 -0.4 -0.2
v 0.2 -0.4 -0.1
v 0.2 -0.4 0.1
v 0.2 -0.4 0.2
v 0.4 -0.4 -0.2
v 0.4 -0.4 -0.1
v 0.4 -0.4 0.1
v 0.4 -0.4 0.2
v 0.5 -0.4 -0.1
v 0.5 -0.4 0.1
v -0.4 -0.3 -0.1
v -0.4 -0.3 0.1
v -0.3 -0.3 -0.1
v -0.3 -0.3 0.1
v 0.1 -0.3 -0.2
v 0.1 -0.3 -0.1
v 0.1 -0.3 0.1
v 0.1 -0.3 0.2
v 0.2 -0.3 -0.2
v 0.2 -0.3 -0.1
v 0.2 -0.3 0.1
v 0.2 -0.3 0.2
v 0.4 -0.3 -0.1
v 0.4 -0.3 0.1
v -0.6 0.7 -0.2
v -0.6 0.7 -0.1
v -0.6 0.7 0.1
v -0.6 0.7 0.2
v -0.1 0.7 -0.2
v -0.1 0.7 -0.1
v -0.1 0.7 0.1
v -0.1 0.7 0.2
v -0.7 0.8 -0.1
v -0.7 0.8 0.1
v -0.2 0.8 -0.1
v -0.2 0.8 0.1
v -0.6 1.1 -0.2
v -0.6 1.1 -0.1
v -0.6 1.1 0.1
v -0.6 1.1 0.2
v -0.1 1.1 -0.2
v -0.1 1.1 -0.1
v -0.1 1.1 0.1
v -0.1 1.1 0.2
v -0.7 1.2 -0.1
v -0.7 1.2 0.1
v -0.2 1.2 -0.1
v -0.2 1.2 0.1
v -0.6 1.5 -0.2
v -0.6 1.5 -0.1
v -0.6 1.5 0.1
v -0.6 1.5 0.2
v 0 1.5 -0.2
v 0 1.5 -0.1
v 0 1.5 0.1
v 0 1.5 0.2
v 0.1 1.5 -0.2
v 0.1 1.5 -0.1
v 0.1 1.5 0.1
v 0.1 1.5 0.2
v -0.7 1.6 -0.1
v -0.7 1.6 0.1
v 0.2 1.6 -0.1
v 0.2 1.6 0.1
v -0.2 -1.5 -0.2
v 0.2 -1.5 -0.2
v -0.3 -1.4 -0.2
v -0.2 -1.4 -0.2
v 0.2 -1.4 -0.2
v 0.3 -1.4 -0.2
v -0.5 -1.3 -0.2
v -0.3 -1.3 -0.2
v 0.3 -1.3 -0.2
v 0.5 -1.3 -0.2
v -0.6 -1.2 -0.2
v -0.5 -1.2 -0.2
v -0.2 -1.2 -0.2
v 0.2 -1.2 -0.2
v 0.3 -1.2 -0.2
v 0.4 -1.2 -0.2
v 0.5 -1.2 -0.2
v 0.6 -1.2 -0.2
v -0.3 -1.1 -0.2
v -0.2 -1.1 -0.2
v 0.2 -1.1 -0.2
v 0.3 -1.1 -0.2
v 0.4 -1.1 -0.2
v 0.5 -1.1 -0.2
v 0.4 -0.8 -0.2
v 0.5 -0.8 -0.2
v -0.3 -0.7 -0.2
v -0.2 -0.7 -0.2
v 0.2 -0.7 -0.2
v 0.3 -0.7 -0.2
v -0.6 -0.6 -0.2
v -0.4 -0.6 -0.2
v -0.2 -0.6 -0.2
v 0.2 -0.6 -0.2
v 0.3 -0.6 -0.2
v 0.4 -0.6 -0.2
v 0.6 -0.6 -0.2
v 0.1 -0.5 -0.2
v 0.3 -0.5 -0.2
v -0.4 -0.4 -0.2
v -0.2 -0.4 -0.2
v 0.2 -0.4 -0.2
v 0.4 -0.4 -0.2
v 0 -0.3 -0.2
v 0.1 -0.3 -0.2
v 0.2 -0.3 -0.2
v -0.6 0.6 -0.2
v -0.2 0.6 -0.2
v -0.6 0.7 -0.2
v -0.1 0.7 -0.2
v -0.6 1 -0.2
v -0.1 1 -0.2
v -0.6 1.1 -0.2
v -0.1 1.1 -0.2
v -0.6 1.4 -0.2
v -0.1 1.4 -0.2
v -0.6 1.5 -0.2
v 0 1.5 -0.2
v 0.1 1.5 -0.2
v -0.2 -1.6 -0.1
v 0.2 -1.6 -0.1
v -0.3 -1.5 -0.1
v -0.2 -1.5 -0.1
v 0.2 -1.5 -0.1
v 0.3 -1.5 -0.1
v -0.5 -1.4 -0.1
v -0.3 -1.4 -0.1
v -0.2 -1.4 -0.1
v 0.2 -1.4 -0.1
v 0.3 -1.4 -0.1
v 0.5 -1.4 -0.1
v -0.6 -1.3 -0.1
v -0.5 -1.3 -0.1
v -0.3 -1.3 -0.1
v 0.3 -1.3 -0.1
v 0.5 -1.3 -0.1
v 0.6 -1.3 -0.1
v -0.7 -1.2 -0.1
v -0.6 -1.2 -0.1
v -0.5 -1.2 -0.1
v 0.5 -1.2 -0.1
v 0.6 -1.2 -0.1
v 0.7 -1.2 -0.1
v -0.7 -0.6 -0.1
v -0.6 -0.6 -0.1
v -0.4 -0.6 -0.1
v 0.4 -0.6 -0.1
v 0.6 -0.6 -0.1
v 0.7 -0.6 -0.1
v -0.6 -0.5 -0.1
v -0.5 -0.5 -0.1
v 0.5 -0.5 -0.1
v 0.6 -0.5 -0.1
v -0.5 -0.4 -0.1
v -0.4 -0.4 -0.1
v -0.2 -0.4 -0.1
v 0.2 -0.4 -0.1
v 0.4 -0.4 -0.1
v 0.5 -0.4 -0.1
v -0.4 -0.3 -0.1
v -0.3 -0.3 -0.1
v 0.1 -0.3 -0.1
v 0.2 -0.3 -0.1
v 0.4 -0.3 -0.1
v -0.6 0.5 -0.1
v -0.3 0.5 -0.1
v -0.7 0.6 -0.1
v -0.6 0.6 -0.1
v -0.2 0.6 -0.1
v -0.6 0.7 -0.1
v -0.1 0.7 -0.1
v -0.7 0.8 -0.1
v -0.2 0.8 -0.1
v -0.6 0.9 -0.1
v -0.2 0.9 -0.1
v -0.7 1 -0.1
v -0.6 1 -0.1
v -0.1 1 -0.1
v -0.6 1.1 -0.1
v -0.1 1.1 -0.1
v -0.7 1.2 -0.1
v -0.2 1.2 -0.1
v -0.6 1.3 -0.1
v -0.2 1.3 -0.1
v -0.7 1.4 -0.1
v -0.6 1.4 -0.1
v -0.1 1.4 -0.1
v -0.6 1.5 -0.1
v 0 1.5 -0.1
v 0.1 1.5 -0.1
v -0.7 1.6 -0.1
v 0.2 1.6 -0.1
v -0.2 -1.6 0.1
v 0.2 -1.6 0.1
v -0.3 -1.5 0.1
v -0.2 -1.5 0.1
v 0.2 -1.5 0.1
v 0.3 -1.5 0.1
v -0.5 -1.4 0.1
v -0.3 -1.4 0.1
v -0.2 -1.4 0.1
v 0.2 -1.4 0.1
v 0.3 -1.4 0.1
v 0.5 -1.4 0.1
v -0.6 -1.3 0.1
v -0.5 -1.3 0.1
v -0.3 -1.3 0.1
v 0.3 -1.3 0.1
v 0.5 -1.3 0.1
v 0.6 -1.3 0.1
v -0.7 -1.2 0.1
v -0.6 -1.2 0.1
v -0.5 -1.2 0.1
v 0.5 -1.2 0.1
v 0.6 -1.2 0.1
v 0.7 -1.2 0.1
v -0.7 -0.6 0.1
v -0.6 -0.6 0.1
v -0.4 -0.6 0.1
v 0.4 -0.6 0.1
v 0.6 -0.6 0.1
v 0.7 -0.6 0.1
v -0.6 -0.5 0.1
v -0.5 -0.5 0.1
v 0.5 -0.5 0.1
v 0.6 -0.5 0.1
v -0.5 -0.4 0.1
v -0.4 -0.4 0.1
v -0.2 -0.4 0.1
v 0.2 -0.4 0.1
v 0.4 -0.4 0.1
v 0.5 -0.4 0.1
v -0.4 -0.3 0.1
v -0.3 -0.3 0.1
v 0.1 -0.3 0.1
v 0.2 -0.3 0.1
v 0.4 -0.3 0.1
v -0.6 0.5 0.1
v -0.3 0.5 0.1
v -0.7 0.6 0.1
v -0.6 0.6 0.1
v -0.2 0.6 0.1
v -0.6 0.7 0.1
v -0.1 0.7 0.1
v -0.7 0.8 0.1
v -0.2 0.8 0.1
v -0.6 0.9 0.1
v -0.2 0.9 0.1
v -0.7 1 0.1
v -0.6 1 0.1
v -0.1 1 0.1
v -0.6 1.1 0.1
v -0.1 1.1 0.1
v -0.7 1.2 0.1
v -0.2 1.2 0.1
v -0.6 1.3 0.1
v -0.2 1.3 0.1
v -0.7 1.4 0.1
v -0.6 1.4 0.1
v -0.1 1.4 0.1
v -0.6 1.5 0.1
v 0 1.5 0.1
v 0.1 1.5 0.1
v -0.7 1.6 0.1
v 0.2 1.6 0.1
v -0.2 -1.5 0.2
v 0.2 -1.5 0.2
v -0.3 -1.4 0.2
v -0.2 -1.4 0.2
v 0.2 -1.4 0.2
v 0.3 -1.4 0.2
v -0.5 -1.3 0.2
v -0.3 -1.3 0.2
v 0.3 -1.3 0.2
v 0.5 -1.3 0.2
v -0.6 -1.2 0.2
v -0.5 -1.2 0.2
v -0.2 -1.2 0.2
v 0.2 -1.2 0.2
v 0.3 -1.2 0.2
v 0.4 -1.2 0.2
v 0.5 -1.2 0.2
v 0.6 -1.2 0.2
v -0.3 -1.1 0.2
v -0.2 -1.1 0.2
v 0.2 -1.1 0.2
v 0.3 -1.1 0.2
v 0.4 -1.1 0.2
v 0.5 -1.1 0.2
v 0.4 -0.8 0.2
v 0.5 -0.8 0.2
v -0.3 -0.7 0.2
v -0.2 -0.7 0.2
v 0.2 -0.7 0.2
v 0.3 -0.7 0.2
v -0.6 -0.6 0.2
v -0.4 -0.6 0.2
v -0.2 -0.6 0.2
v 0.2 -0.6 0.2
v 0.3 -0.6 0.2
v 0.4 -0.6 0.2
v 0.6 -0.6 0.2
v 0.1 -0.5 0.2
v 0.3 -0.5 0.2
v -0.4 -0.4 0.2
v -0.2 -0.4 0.2
v 0.2 -0.4 0.2
v 0.4 -0.4 0.2
v 0 -0.3 0.2
v 0.1 -0.3 0.2
v 0.2 -0.3 0.2
v -0.6 0.6 0.2
v -0.2 0.6 0.2
v -0.6 0.7 0.2
v -0.1 0.7 0.2
v -0.6 1 0.2
v -0.1 1 0.2
v -0.6 1.1 0.2
v -0.1 1.1 0.2
v -0.6 1.4 0.2
v -0.1 1.4 0.2
v -0.6 1.5 0.2
v 0 1.5 0.2
v 0.1 1.5 0.2

# faces
f 9/3/1 2/3/1 1/3/1
f 10/3/1 2/3/1 9/3/1
f 11/3/1 4/3/1 3/3/1
f 12/3/1 4/3/1 11/3/1
f 13/3/1 6/3/1 5/3/1
f 14/3/1 6/3/1 13/3/1
f 15/3/1 8/3/1 7/3/1
f 16/3/1 8/3/1 15/3/1
f 26/2/1 18/2/1 17/2/1
f 27/2/1 18/2/1 26/2/1
f 30/2/1 20/2/1 19/2/1
f 31/2/1 20/2/1 30/2/1
f 33/2/1 22/2/1 21/2/1
f 34/2/1 22/2/1 33/2/1
f 36/2/1 24/2/1 23/2/1
f 37/2/1 24/2/1 36/2/1
f 38/3/1 26/3/1 25/3/1
f 39/3/1 26/3/1 38/3/1
f 40/3/1 28/3/1 27/3/1
f 41/3/1 28/3/1 40/3/1
f 42/3/1 30/3/1 29/3/1
f 43/3/1 30/3/1 42/3/1
f 45/3/1 33/3/1 32/3/1
f 46/3/1 33/3/1 45/3/1
f 48/3/1 36/3/1 35/3/1
f 49/3/1 36/3/1 48/3/1
f 51/2/1 40/2/1 39/2/1
f 52/2/1 40/2/1 51/2/1
f 53/2/1 44/2/1 43/2/1
f 54/2/1 44/2/1 53/2/1
f 55/2/1 47/2/1 46/2/1
f 56/2/1 47/2/1 55/2/1
f 57/2/1 50/2/1 49/2/1
f 58/2/1 50/2/1 57/2/1
f 62/2/1 60/2/1 59/2/1
f 63/2/1 60/2/1 62/2/1
f 66/3/1 62/3/1 61/3/1
f 67/3/1 62/3/1 66/3/1
f 69/3/1 65/3/1 64/3/1
f 70/3/1 65/3/1 69/3/1
f 71/2/1 68/2/1 67/2/1
f 72/2/1 68/2/1 71/2/1
f 75/2/1 74/2/1 73/2/1
f 76/2/1 74/2/1 75/2/1
f 79/3/1 77/3/1 76/3/1
f 80/3/1 77/3/1 79/3/1
f 81/2/1 79/2/1 78/2/1
f 82/2/1 79/2/1 81/2/1
f 86/2/1 84/2/1 83/2/1
f 87/2/1 84/2/1 86/2/1
f 90/3/1 86/3/1 85/3/1
f 91/3/1 86/3/1 90/3/1
f 93/3/1 89/3/1 88/3/1
f 94/3/1 89/3/1 93/3/1
f 95/2/1 92/2/1 91/2/1
f 96/2/1 92/2/1 95/2/1
f 102/2/1 98/2/1 97/2/1
f 103/2/1 98/2/1 102/2/1
f 104/2/1 100/2/1 99/2/1
f 105/2/1 100/2/1 104/2/1
f 110/3/1 102/3/1 101/3/1
f 111/3/1 102/3/1 110/3/1
f 115/3/1 107/3/1 106/3/1
f 116/3/1 107/3/1 115/3/1
f 117/3/1 109/3/1 108/3/1
f 118/3/1 109/3/1 117/3/1
f 119/2/1 112/2/1 111/2/1
f 120/2/1 112/2/1 119/2/1
f 121/2/1 114/2/1 113/2/1
f 122/2/1 114/2/1 121/2/1
f 127/2/1 124/2/1 123/2/1
f 128/2/1 124/2/1 127/2/1
f 129/2/1 126/2/1 125/2/1
f 130/2/1 126/2/1 129/2/1
f 135/2/1 132/2/1 131/2/1
f 136/2/1 132/2/1 135/2/1
f 137/2/1 134/2/1 133/2/1
f 138/2/1 134/2/1 137/2/1
f 141/3/1 140/3/1 139/3/1
f 142/3/1 140/3/1 141/3/1
f 143/3/2 144/3/2 145/3/2
f 145/3/2 144/3/2 146/3/2
f 147/1/2 148/1/2 149/1/2
f 149/1/2 148/1/2 150/1/2
f 151/1/2 152/1/2 153/1/2
f 153/1/2 152/1/2 154/1/2
f 155/2/2 156/2/2 160/2/2
f 160/2/2 156/2/2 161/2/2
f 157/1/2 158/1/2 162/1/2
f 162/1/2 158/1/2 163/1/2
f 159/3/2 160/3/2 165/3/2
f 165/3/2 160/3/2 166/3/2
f 163/3/2 164/3/2 169/3/2
f 169/3/2 164/3/2 170/3/2
f 166/2/2 167/2/2 171/2/2
f 171/2/2 167/2/2 172/2/2
f 168/1/2 169/1/2 173/1/2
f 173/1/2 169/1/2 174/1/2
f 175/1/2 176/1/2 178/1/2
f 178/1/2 176/1/2 179/1/2
f 177/3/2 178/3/2 180/3/2
f 180/3/2 178/3/2 181/3/2
f 181/1/2 182/1/2 183/1/2
f 183/1/2 182/1/2 184/1/2
f 185/1/2 186/1/2 187/1/2
f 187/1/2 186/1/2 188/1/2
f 188/3/2 189/3/2 191/3/2
f 191/3/2 189/3/2 192/3/2
f 190/1/2 191/1/2 193/1/2
f 193/1/2 191/1/2 194/1/2
f 195/1/2 196/1/2 198/1/2
f 198/1/2 196/1/2 199/1/2
f 197/3/2 198/3/2 202/3/2
f 202/3/2 198/3/2 203/3/2
f 200/3/2 201/3/2 205/3/2
f 205/3/2 201/3/2 206/3/2
f 203/1/2 204/1/2 207/1/2
f 207/1/2 204/1/2 208/1/2
f 209/1/2 210/1/2 212/1/2
f 212/1/2 210/1/2 213/1/2
f 211/3/2 212/3/2 215/3/2
f 215/3/2 212/3/2 216/3/2
f 213/3/2 214/3/2 217/3/2
f 217/3/2 214/3/2 218/3/2
f 216/1/2 217/1/2 219/1/2
f 219/1/2 217/1/2 220/1/2
f 221/3/2 222/3/2 223/3/2
f 223/3/2 222/3/2 224/3/2
f 227/3/3 226/3/3 225/3/3
f 228/3/3 226/3/3 227/3/3
f 232/3/3 230/3/3 229/3/3
f 233/3/3 230/3/3 232/3/3
f 235/2/3 232/2/3 231/2/3
f 236/2/3 232/2/3 235/2/3
f 237/2/3 234/2/3 233/2/3
f 238/2/3 234/2/3 237/2/3
f 239/3/3 237/3/3 236/3/3
f 240/3/3 237/3/3 239/3/3
f 244/3/3 242/3/3 241/3/3
f 245/3/3 242/3/3 244/3/3
f 247/2/3 244/2/3 243/2/3
f 248/2/3 244/2/3 247/2/3
f 249/2/3 246/2/3 245/2/3
f 250/2/3 246/2/3 249/2/3
f 255/1/3 252/1/3 251/1/3
f 256/1/3 252/1/3 255/1/3
f 257/1/3 254/1/3 253/1/3
f 258/1/3 254/1/3 257/1/3
f 259/3/3 257/3/3 256/3/3
f 260/3/3 257/3/3 259/3/3
f 264/3/3 262/3/3 261/3/3
f 265/3/3 262/3/3 264/3/3
f 267/2/3 264/2/3 263/2/3
f 268/2/3 264/2/3 267/2/3
f 269/2/3 266/2/3 265/2/3
f 270/2/3 266/2/3 269/2/3
f 275/1/3 272/1/3 271/1/3
f 276/1/3 272/1/3 275/1/3
f 277/1/3 274/1/3 273/1/3
f 278/1/3 274/1/3 277/1/3
f 279/3/3 277/3/3 276/3/3
f 280/3/3 277/3/3 279/3/3
f 284/3/3 282/3/3 281/3/3
f 285/3/3 282/3/3 284/3/3
f 287/2/3 284/2/3 283/2/3
f 288/2/3 284/2/3 287/2/3
f 289/2/3 286/2/3 285/2/3
f 290/2/3 286/2/3 289/2/3
f 295/1/3 292/1/3 291/1/3
f 296/1/3 292/1/3 295/1/3
f 297/1/3 294/1/3 293/1/3
f 298/1/3 294/1/3 297/1/3
f 299/3/3 297/3/3 296/3/3
f 300/3/3 297/3/3 299/3/3
f 303/3/3 302/3/3 301/3/3
f 304/3/3 302/3/3 303/3/3
f 307/3/3 306/3/3 305/3/3
f 308/3/3 306/3/3 307/3/3
f 312/3/3 310/3/3 309/3/3
f 313/3/3 310/3/3 312/3/3
f 315/2/3 312/2/3 311/2/3
f 316/2/3 312/2/3 315/2/3
f 317/2/3 314/2/3 313/2/3
f 318/2/3 314/2/3 317/2/3
f 321/3/3 320/3/3 319/3/3
f 322/3/3 320/3/3 321/3/3
f 326/3/3 324/3/3 323/3/3
f 327/3/3 324/3/3 326/3/3
f 329/2/3 326/2/3 325/2/3
f 330/2/3 326/2/3 329/2/3
f 331/2/3 328/2/3 327/2/3
f 332/2/3 328/2/3 331/2/3
f 335/3/3 334/3/3 333/3/3
f 336/3/3 334/3/3 335/3/3
f 340/3/3 338/3/3 337/3/3
f 341/3/3 338/3/3 340/3/3
f 343/2/3 340/2/3 339/2/3
f 344/2/3 340/2/3 343/2/3
f 345/2/3 342/2/3 341/2/3
f 346/2/3 342/2/3 345/2/3
f 347/3/4 348/3/4 349/3/4
f 349/3/4 348/3/4 350/3/4
f 351/3/4 352/3/4 354/3/4
f 354/3/4 352/3/4 355/3/4
f 353/2/4 354/2/4 357/2/4
f 357/2/4 354/2/4 358/2/4
f 355/2/4 356/2/4 359/2/4
f 359/2/4 356/2/4 360/2/4
f 361/1/4 362/1/4 365/1/4
f 365/1/4 362/1/4 366/1/4
f 363/1/4 364/1/4 367/1/4
f 367/1/4 364/1/4 368/1/4
f 366/3/4 367/3/4 369/3/4
f 369/3/4 367/3/4 370/3/4
f 371/3/4 372/3/4 373/3/4
f 373/3/4 372/3/4 374/3/4
f 375/3/4 376/3/4 377/3/4
f 377/3/4 376/3/4 378/3/4
f 379/3/4 380/3/4 382/3/4
f 382/3/4 380/3/4 383/3/4
f 381/2/4 382/2/4 385/2/4
f 385/2/4 382/2/4 386/2/4
f 383/2/4 384/2/4 387/2/4
f 387/2/4 384/2/4 388/2/4
f 389/1/4 390/1/4 393/1/4
f 393/1/4 390/1/4 394/1/4
f 391/1/4 392/1/4 395/1/4
f 395/1/4 392/1/4 396/1/4
f 394/3/4 395/3/4 397/3/4
f 397/3/4 395/3/4 398/3/4
f 399/3/4 400/3/4 401/3/4
f 401/3/4 400/3/4 402/3/4
f 403/1/4 404/1/4 407/1/4
f 407/1/4 404/1/4 408/1/4
f 405/1/4 406/1/4 409/1/4
f 409/1/4 406/1/4 410/1/4
f 408/3/4 409/3/4 411/3/4
f 411/3/4 409/3/4 412/3/4
f 413/2/4 414/2/4 417/2/4
f 417/2/4 414/2/4 418/2/4
f 415/2/4 416/2/4 419/2/4
f 419/2/4 416/2/4 420/2/4
f 421/3/4 422/3/4 423/3/4
f 423/3/4 422/3/4 424/3/4
f 425/2/4 426/2/4 429/2/4
f 429/2/4 426/2/4 430/2/4
f 427/2/4 428/2/4 431/2/4
f 431/2/4 428/2/4 432/2/4
f 433/3/4 434/3/4 435/3/4
f 435/3/4 434/3/4 436/3/4
f 437/2/4 438/2/4 441/2/4
f 441/2/4 438/2/4 442/2/4
f 439/2/4 440/2/4 443/2/4
f 443/2/4 440/2/4 444/2/4
f 441/1/4 442/1/4 445/1/4
f 445/1/4 442/1/4 446/1/4
f 443/1/4 444/1/4 447/1/4
f 447/1/4 444/1/4 448/1/4
f 449/3/4 450/3/4 451/3/4
f 451/3/4 450/3/4 452/3/4
f 456/2/5 454/2/5 453/2/5
f 457/2/5 454/2/5 456/2/5
f 460/2/5 456/2/5 455/2/5
f 460/2/5 457/2/5 456/2/5
f 461/1/5 458/1/5 457/1/5
f 464/2/5 460/2/5 459/2/5
f 465/2/5 457/2/5 460/2/5
f 465/2/5 460/2/5 464/2/5
f 466/1/5 462/1/5 461/1/5
f 466/2/5 457/2/5 465/2/5
f 466/1/5 461/1/5 457/1/5
f 467/1/5 462/1/5 466/1/5
f 468/1/5 462/1/5 467/1/5
f 469/1/5 462/1/5 468/1/5
f 471/2/5 465/2/5 464/2/5
f 471/2/5 464/2/5 463/2/5
f 472/3/5 466/3/5 465/3/5
f 472/2/5 465/2/5 471/2/5
f 473/1/5 467/1/5 466/1/5
f 473/3/5 466/3/5 472/3/5
f 474/2/5 468/2/5 467/2/5
f 474/1/5 467/1/5 473/1/5
f 475/1/5 470/1/5 469/1/5
f 475/2/5 468/2/5 474/2/5
f 475/1/5 469/1/5 468/1/5
f 476/1/5 470/1/5 475/1/5
f 477/2/5 475/2/5 474/2/5
f 477/2/5 476/2/5 475/2/5
f 478/1/5 470/1/5 476/1/5
f 478/2/5 476/2/5 477/2/5
f 479/2/5 471/2/5 463/2/5
f 479/3/5 472/3/5 471/3/5
f 480/3/5 472/3/5 479/3/5
f 481/3/5 474/3/5 473/3/5
f 482/2/5 477/2/5 474/2/5
f 482/3/5 474/3/5 481/3/5
f 483/2/5 480/2/5 479/2/5
f 483/2/5 479/2/5 463/2/5
f 484/2/5 480/2/5 483/2/5
f 485/3/5 481/3/5 480/3/5
f 485/2/5 480/2/5 484/2/5
f 486/2/5 482/2/5 481/2/5
f 486/3/5 481/3/5 485/3/5
f 487/2/5 477/2/5 482/2/5
f 487/2/5 482/2/5 486/2/5
f 488/1/5 478/1/5 477/1/5
f 488/2/5 477/2/5 487/2/5
f 489/1/5 470/1/5 478/1/5
f 489/1/5 478/1/5 488/1/5
f 490/2/5 486/2/5 485/2/5
f 490/2/5 487/2/5 486/2/5
f 490/2/5 485/2/5 484/2/5
f 491/1/5 488/1/5 487/1/5
f 491/2/5 487/2/5 490/2/5
f 492/2/5 490/2/5 484/2/5
f 493/2/5 490/2/5 492/2/5
f 494/1/5 491/1/5 490/1/5
f 495/1/5 488/1/5 491/1/5
f 495/1/5 491/1/5 494/1/5
f 496/2/5 490/2/5 493/2/5
f 497/1/5 494/1/5 490/1/5
f 497/2/5 490/2/5 496/2/5
f 498/1/5 494/1/5 497/1/5
f 500/2/5 496/2/5 493/2/5
f 501/2/5 500/2/5 499/2/5
f 502/2/5 496/2/5 500/2/5
f 502/2/5 500/2/5 501/2/5
f 504/2/5 496/2/5 502/2/5
f 505/2/5 504/2/5 503/2/5
f 506/2/5 496/2/5 504/2/5
f 506/2/5 504/2/5 505/2/5
f 508/2/5 496/2/5 506/2/5
f 509/2/5 508/2/5 507/2/5
f 510/1/5 497/1/5 496/1/5
f 510/2/5 508/2/5 509/2/5
f 510/2/5 496/2/5 508/2/5
f 511/1/5 497/1/5 510/1/5
f 515/3/5 513/3/5 512/3/5
f 516/3/5 513/3/5 515/3/5
f 519/3/5 515/3/5 514/3/5
f 520/3/5 515/3/5 519/3/5
f 521/3/5 517/3/5 516/3/5
f 522/3/5 517/3/5 521/3/5
f 525/3/5 519/3/5 518/3/5
f 526/3/5 519/3/5 525/3/5
f 527/3/5 523/3/5 522/3/5
f 528/3/5 523/3/5 527/3/5
f 531/3/5 525/3/5 524/3/5
f 532/3/5 525/3/5 531/3/5
f 533/3/5 529/3/5 528/3/5
f 534/3/5 529/3/5 533/3/5
f 536/3/5 531/3/5 530/3/5
f 537/3/5 531/3/5 536/3/5
f 540/3/5 535/3/5 534/3/5
f 541/3/5 535/3/5 540/3/5
f 542/3/5 538/3/5 537/3/5
f 543/3/5 538/3/5 542/3/5
f 544/3/5 540/3/5 539/3/5
f 545/3/5 540/3/5 544/3/5
f 546/3/5 538/3/5 543/3/5
f 547/3/5 538/3/5 546/3/5
f 550/3/5 544/3/5 539/3/5
f 551/3/5 544/3/5 550/3/5
f 552/3/5 548/3/5 547/3/5
f 553/3/5 548/3/5 552/3/5
f 555/3/5 550/3/5 549/3/5
f 556/3/5 550/3/5 555/3/5
f 558/3/5 548/3/5 553/3/5
f 560/3/5 558/3/5 557/3/5
f 561/3/5 548/3/5 558/3/5
f 561/3/5 558/3/5 560/3/5
f 562/3/5 560/3/5 559/3/5
f 564/3/5 562/3/5 559/3/5
f 564/3/5 563/3/5 562/3/5
f 565/3/5 563/3/5 564/3/5
f 567/3/5 563/3/5 565/3/5
f 569/3/5 567/3/5 566/3/5
f 570/3/5 563/3/5 567/3/5
f 570/3/5 567/3/5 569/3/5
f 571/3/5 569/3/5 568/3/5
f 573/3/5 571/3/5 568/3/5
f 573/3/5 572/3/5 571/3/5
f 574/3/5 572/3/5 573/3/5
f 576/3/5 572/3/5 574/3/5
f 578/3/5 576/3/5 575/3/5
f 579/3/5 572/3/5 576/3/5
f 579/3/5 576/3/5 578/3/5
f 580/3/5 578/3/5 577/3/5
f 582/3/5 555/3/5 554/3/5
f 583/3/5 581/3/5 580/3/5
f 583/3/5 582/3/5 581/3/5
f 583/3/5 580/3/5 577/3/5
f 584/3/5 555/3/5 582/3/5
f 584/3/5 582/3/5 583/3/5
f 585/3/6 586/3/6 588/3/6
f 588/3/6 586/3/6 589/3/6
f 587/3/6 588/3/6 592/3/6
f 592/3/6 588/3/6 593/3/6
f 589/3/6 590/3/6 594/3/6
f 594/3/6 590/3/6 595/3/6
f 591/3/6 592/3/6 598/3/6
f 598/3/6 592/3/6 599/3/6
f 595/3/6 596/3/6 600/3/6
f 600/3/6 596/3/6 601/3/6
f 597/3/6 598/3/6 604/3/6
f 604/3/6 598/3/6 605/3/6
f 601/3/6 602/3/6 606/3/6
f 606/3/6 602/3/6 607/3/6
f 603/3/6 604/3/6 609/3/6
f 609/3/6 604/3/6 610/3/6
f 607/3/6 608/3/6 613/3/6
f 613/3/6 608/3/6 614/3/6
f 610/3/6 611/3/6 615/3/6
f 615/3/6 611/3/6 616/3/6
f 612/3/6 613/3/6 617/3/6
f 617/3/6 613/3/6 618/3/6
f 616/3/6 611/3/6 619/3/6
f 619/3/6 611/3/6 620/3/6
f 612/3/6 617/3/6 623/3/6
f 623/3/6 617/3/6 624/3/6
f 620/3/6 621/3/6 625/3/6
f 625/3/6 621/3/6 626/3/6
f 622/3/6 623/3/6 628/3/6
f 628/3/6 623/3/6 629/3/6
f 626/3/6 621/3/6 631/3/6
f 630/3/6 631/3/6 633/3/6
f 631/3/6 621/3/6 634/3/6
f 633/3/6 631/3/6 634/3/6
f 632/3/6 633/3/6 635/3/6
f 632/3/6 635/3/6 637/3/6
f 635/3/6 636/3/6 637/3/6
f 637/3/6 636/3/6 638/3/6
f 638/3/6 636/3/6 640/3/6
f 639/3/6 640/3/6 642/3/6
f 640/3/6 636/3/6 643/3/6
f 642/3/6 640/3/6 643/3/6
f 641/3/6 642/3/6 644/3/6
f 641/3/6 644/3/6 646/3/6
f 644/3/6 645/3/6 646/3/6
f 646/3/6 645/3/6 647/3/6
f 647/3/6 645/3/6 649/3/6
f 648/3/6 649/3/6 651/3/6
f 649/3/6 645/3/6 652/3/6
f 651/3/6 649/3/6 652/3/6
f 650/3/6 651/3/6 653/3/6
f 627/3/6 628/3/6 655/3/6
f 653/3/6 654/3/6 656/3/6
f 654/3/6 655/3/6 656/3/6
f 650/3/6 653/3/6 656/3/6
f 655/3/6 628/3/6 657/3/6
f 656/3/6 655/3/6 657/3/6
f 658/2/6 659/2/6 661/2/6
f 661/2/6 659/2/6 662/2/6
f 660/2/6 661/2/6 665/2/6
f 661/2/6 662/2/6 665/2/6
f 662/1/6 663/1/6 666/1/6
f 664/2/6 665/2/6 669/2/6
f 665/2/6 662/2/6 670/2/6
f 669/2/6 665/2/6 670/2/6
f 666/1/6 667/1/6 671/1/6
f 670/2/6 662/2/6 671/2/6
f 662/1/6 666/1/6 671/1/6
f 671/1/6 667/1/6 672/1/6
f 672/1/6 667/1/6 673/1/6
f 673/1/6 667/1/6 674/1/6
f 669/2/6 670/2/6 676/2/6
f 668/2/6 669/2/6 676/2/6
f 670/3/6 671/3/6 677/3/6
f 676/2/6 670/2/6 677/2/6
f 671/1/6 672/1/6 678/1/6
f 677/3/6 671/3/6 678/3/6
f 672/2/6 673/2/6 679/2/6
f 678/1/6 672/1/6 679/1/6
f 674/1/6 675/1/6 680/1/6
f 679/2/6 673/2/6 680/2/6
f 673/1/6 674/1/6 680/1/6
f 680/1/6 675/1/6 681/1/6
f 679/2/6 680/2/6 682/2/6
f 680/2/6 681/2/6 682/2/6
f 681/1/6 675/1/6 683/1/6
f 682/2/6 681/2/6 683/2/6
f 668/2/6 676/2/6 684/2/6
f 676/3/6 677/3/6 684/3/6
f 684/3/6 677/3/6 685/3/6
f 678/3/6 679/3/6 686/3/6
f 679/2/6 682/2/6 687/2/6
f 686/3/6 679/3/6 687/3/6
f 684/2/6 685/2/6 688/2/6
f 668/2/6 684/2/6 688/2/6
f 688/2/6 685/2/6 689/2/6
f 685/3/6 686/3/6 690/3/6
f 689/2/6 685/2/6 690/2/6
f 686/2/6 687/2/6 691/2/6
f 690/3/6 686/3/6 691/3/6
f 687/2/6 682/2/6 692/2/6
f 691/2/6 687/2/6 692/2/6
f 682/1/6 683/1/6 693/1/6
f 692/2/6 682/2/6 693/2/6
f 683/1/6 675/1/6 694/1/6
f 693/1/6 683/1/6 694/1/6
f 690/2/6 691/2/6 695/2/6
f 691/2/6 692/2/6 695/2/6
f 689/2/6 690/2/6 695/2/6
f 692/1/6 693/1/6 696/1/6
f 695/2/6 692/2/6 696/2/6
f 689/2/6 695/2/6 697/2/6
f 697/2/6 695/2/6 698/2/6
f 695/1/6 696/1/6 699/1/6
f 696/1/6 693/1/6 700/1/6
f 699/1/6 696/1/6 700/1/6
f 698/2/6 695/2/6 701/2/6
f 695/1/6 699/1/6 702/1/6
f 701/2/6 695/2/6 702/2/6
f 702/1/6 699/1/6 703/1/6
f 698/2/6 701/2/6 705/2/6
f 704/2/6 705/2/6 706/2/6
f 705/2/6 701/2/6 707/2/6
f 706/2/6 705/2/6 707/2/6
f 707/2/6 701/2/6 709/2/6
f 708/2/6 709/2/6 710/2/6
f 709/2/6 701/2/6 711/2/6
f 710/2/6 709/2/6 711/2/6
f 711/2/6 701/2/6 713/2/6
f 712/2/6 713/2/6 714/2/6
f 701/1/6 702/1/6 715/1/6
f 714/2/6 713/2/6 715/2/6
f 713/2/6 701/2/6 715/2/6
f 715/1/6 702/1/6 716/1/6
