# MagicaVoxel @ Ephtracy

# group
o 

# material
mtllib antorcha sobre muro.mtl
usemtl palette

# normals
vn -1 0 0
vn 1 0 0
vn 0 0 1
vn 0 0 -1
vn 0 -1 0
vn 0 1 0

# texcoords
vt 0.0214844 0.5
vt 0.0917969 0.5
vt 0.255859 0.5
vt 0.880859 0.5
vt 0.912109 0.5

# verts
v -0.0999999 1 1
v -0.0999999 1 0.9
v -0.0999999 1.1 1
v -0.0999999 1.1 0.9
v -0.0999999 1.1 0.8
v -0.0999999 1.1 0.7
v -0.0999999 1.2 0.8
v -0.0999999 1.2 0.7
v -0.0999999 1.2 0.5
v -0.0999999 1.3 0.7
v -0.0999999 1.3 0.5
v 7.45058e-08 0.3 0.5
v 7.45058e-08 0.3 0.3
v 7.45058e-08 0.4 0.4
v 7.45058e-08 0.4 0.3
v 7.45058e-08 0.5 0.6
v 7.45058e-08 0.5 0.5
v 7.45058e-08 0.5 0.4
v 7.45058e-08 0.5 0.3
v 7.45058e-08 0.7 0.7
v 7.45058e-08 0.7 0.6
v 7.45058e-08 0.8 0.7
v 7.45058e-08 0.8 0.6
v 7.45058e-08 0.8 0.4
v 7.45058e-08 0.8 0.3
v 7.45058e-08 0.9 0.8
v 7.45058e-08 0.9 0.6
v 7.45058e-08 0.9 0.5
v 7.45058e-08 0.9 0.4
v 7.45058e-08 1 0.8
v 7.45058e-08 1 0.7
v 7.45058e-08 1.1 0.9
v 7.45058e-08 1.1 0.8
v 7.45058e-08 1.1 0.7
v 7.45058e-08 1.1 0.6
v 7.45058e-08 1.1 0.5
v 7.45058e-08 1.2 0.9
v 7.45058e-08 1.2 0.8
v 7.45058e-08 1.2 0.7
v 7.45058e-08 1.2 0.6
v 7.45058e-08 1.3 1
v 7.45058e-08 1.3 0.9
v 7.45058e-08 1.3 0.8
v 7.45058e-08 1.3 0.7
v 7.45058e-08 1.4 1
v 7.45058e-08 1.4 0.9
v 7.45058e-08 1.4 0.8
v 7.45058e-08 1.4 0.7
v 7.45058e-08 1.5 0.9
v 7.45058e-08 1.5 0.8
v 0.1 0.2 0.3
v 0.1 0.2 0.2
v 0.1 0.3 0.3
v 0.1 0.4 0.4
v 0.1 0.4 0.3
v 0.1 0.5 0.4
v 0.1 0.5 0.3
v 0.1 0.6 0.3
v 0.1 0.6 0.2
v 0.1 0.8 0.7
v 0.1 0.8 0.6
v 0.1 0.9 0.7
v 0.1 0.9 0.6
v 0.1 1 0.9
v 0.1 1 0.8
v 0.1 1 0.7
v 0.1 1.1 0.9
v 0.1 1.1 0.7
v 0.1 1.2 1
v 0.1 1.2 0.9
v 0.1 1.2 0.8
v 0.1 1.2 0.7
v 0.1 1.2 0.6
v 0.1 1.3 1
v 0.1 1.3 0.9
v 0.1 1.3 0.8
v 0.1 1.3 0.7
v 0.1 1.3 0.6
v 0.1 1.4 1
v 0.1 1.4 0.9
v 0.1 1.4 0.8
v 0.1 1.4 0.7
v 0.1 1.4 0.6
v 0.1 1.5 1
v 0.1 1.5 0.9
v 0.1 1.5 0.8
v 0.1 1.5 0.7
v 0.1 1.6 0.9
v 0.1 1.6 0.8
v 0.2 0 0.3
v 0.2 0 0.2
v 0.2 0.2 0.4
v 0.2 0.2 0.3
v 0.2 0.2 0.2
v 0.2 0.3 0.4
v 0.2 0.3 0.3
v 0.2 0.4 0.5
v 0.2 0.4 0.4
v 0.2 0.5 0.5
v 0.2 0.5 0.4
v 0.2 0.7 0.5
v 0.2 0.7 0.4
v 0.2 0.8 0.5
v 0.2 0.8 0.4
v 0.2 1.2 0.6
v 0.2 1.2 0.5
v 0.2 1.3 0.6
v 0.2 1.3 0.5
v 7.45058e-08 1.2 0.7
v 7.45058e-08 1.2 0.6
v 7.45058e-08 1.3 0.7
v 7.45058e-08 1.3 0.6
v 0.1 0.4 0.5
v 0.1 0.4 0.4
v 0.1 0.5 0.5
v 0.1 0.5 0.4
v 0.1 0.7 0.5
v 0.1 0.7 0.4
v 0.1 0.8 0.5
v 0.1 0.8 0.4
v 0.1 0.9 0.6
v 0.1 0.9 0.5
v 0.1 1.1 0.7
v 0.1 1.1 0.6
v 0.1 1.1 0.5
v 0.1 1.2 0.7
v 0.1 1.2 0.6
v 0.1 1.2 0.5
v 0.1 1.3 0.6
v 0.1 1.3 0.5
v 0.2 0.3 0.5
v 0.2 0.3 0.4
v 0.2 0.3 0.3
v 0.2 0.4 0.5
v 0.2 0.4 0.3
v 0.2 0.6 0.6
v 0.2 0.6 0.5
v 0.2 0.6 0.4
v 0.2 0.6 0.3
v 0.2 0.7 0.6
v 0.2 0.7 0.5
v 0.2 0.8 0.4
v 0.2 0.8 0.3
v 0.2 1.2 1
v 0.2 1.2 0.9
v 0.2 1.2 0.8
v 0.2 1.2 0.7
v 0.2 1.3 1
v 0.2 1.3 0.9
v 0.2 1.3 0.8
v 0.2 1.3 0.7
v 0.2 1.3 0.6
v 0.2 1.4 1
v 0.2 1.4 0.9
v 0.2 1.4 0.8
v 0.2 1.4 0.7
v 0.2 1.4 0.6
v 0.2 1.5 1
v 0.2 1.5 0.9
v 0.2 1.5 0.8
v 0.2 1.5 0.7
v 0.2 1.6 0.9
v 0.2 1.6 0.8
v 0.3 0 0.3
v 0.3 0 0.2
v 0.3 0.2 0.4
v 0.3 0.2 0.3
v 0.3 0.3 0.4
v 0.3 0.3 0.3
v 0.3 0.4 0.5
v 0.3 0.4 0.3
v 0.3 0.5 0.6
v 0.3 0.5 0.5
v 0.3 0.6 0.6
v 0.3 0.6 0.5
v 0.3 0.6 0.4
v 0.3 0.6 0.2
v 0.3 0.7 0.7
v 0.3 0.7 0.5
v 0.3 0.9 0.8
v 0.3 0.9 0.7
v 0.3 0.9 0.6
v 0.3 0.9 0.4
v 0.3 1 1
v 0.3 1 0.8
v 0.3 1.1 1
v 0.3 1.1 0.9
v 0.3 1.1 0.7
v 0.3 1.1 0.6
v 0.3 1.2 0.9
v 0.3 1.2 0.8
v 0.3 1.3 1
v 0.3 1.3 0.9
v 0.3 1.3 0.8
v 0.3 1.4 1
v 0.3 1.4 0.9
v 0.3 1.4 0.8
v 0.3 1.5 0.9
v 0.3 1.5 0.8
v 0.4 1.1 0.9
v 0.4 1.1 0.7
v 0.4 1.2 0.9
v 0.4 1.2 0.7
v 0.4 1.2 0.5
v 0.4 1.3 0.7
v 0.4 1.3 0.5
v -0.0999999 1 1
v -0.0999999 1.1 1
v 7.45058e-08 1.3 1
v 7.45058e-08 1.4 1
v 0.1 1.2 1
v 0.1 1.3 1
v 0.1 1.4 1
v 0.1 1.5 1
v 0.2 1.2 1
v 0.2 1.3 1
v 0.2 1.4 1
v 0.2 1.5 1
v 0.3 1 1
v 0.3 1.1 1
v 0.3 1.3 1
v 0.3 1.4 1
v 7.45058e-08 1.1 0.9
v 7.45058e-08 1.2 0.9
v 7.45058e-08 1.3 0.9
v 7.45058e-08 1.4 0.9
v 7.45058e-08 1.5 0.9
v 0.1 1.2 0.9
v 0.1 1.3 0.9
v 0.1 1.4 0.9
v 0.1 1.5 0.9
v 0.1 1.6 0.9
v 0.2 1.2 0.9
v 0.2 1.3 0.9
v 0.2 1.4 0.9
v 0.2 1.5 0.9
v 0.2 1.6 0.9
v 0.3 1.1 0.9
v 0.3 1.2 0.9
v 0.3 1.3 0.9
v 0.3 1.4 0.9
v 0.3 1.5 0.9
v 0.4 1.1 0.9
v 0.4 1.2 0.9
v -0.0999999 1.1 0.8
v -0.0999999 1.2 0.8
v 7.45058e-08 0.9 0.8
v 7.45058e-08 1 0.8
v 7.45058e-08 1.1 0.8
v 7.45058e-08 1.2 0.8
v 0.1 1 0.8
v 0.3 0.9 0.8
v 0.3 1 0.8
v -0.0999999 1.2 0.7
v -0.0999999 1.3 0.7
v 7.45058e-08 0.7 0.7
v 7.45058e-08 0.8 0.7
v 7.45058e-08 1 0.7
v 7.45058e-08 1.1 0.7
v 7.45058e-08 1.2 0.7
v 7.45058e-08 1.3 0.7
v 0.1 0.8 0.7
v 0.1 0.9 0.7
v 0.1 1 0.7
v 0.1 1.1 0.7
v 0.2 1.2 0.7
v 0.2 1.3 0.7
v 0.3 0.7 0.7
v 0.3 0.9 0.7
v 0.4 1.2 0.7
v 0.4 1.3 0.7
v 7.45058e-08 0.5 0.6
v 7.45058e-08 0.7 0.6
v 7.45058e-08 0.8 0.6
v 7.45058e-08 0.9 0.6
v 7.45058e-08 1.2 0.6
v 7.45058e-08 1.3 0.6
v 0.1 0.8 0.6
v 0.1 0.9 0.6
v 0.1 1.2 0.6
v 0.1 1.3 0.6
v 0.2 0.6 0.6
v 0.2 0.7 0.6
v 0.3 0.5 0.6
v 0.3 0.6 0.6
v 7.45058e-08 0.3 0.5
v 7.45058e-08 0.5 0.5
v 0.1 0.4 0.5
v 0.1 0.5 0.5
v 0.2 0.3 0.5
v 0.2 0.4 0.5
v 0.2 0.5 0.5
v 0.2 0.6 0.5
v 0.2 0.7 0.5
v 0.3 0.4 0.5
v 0.3 0.5 0.5
v 0.3 0.6 0.5
v 0.3 0.7 0.5
v 0.1 0.4 0.4
v 0.1 0.5 0.4
v 0.1 0.7 0.4
v 0.1 0.8 0.4
v 0.2 0.2 0.4
v 0.2 0.3 0.4
v 0.2 0.4 0.4
v 0.2 0.5 0.4
v 0.2 0.7 0.4
v 0.2 0.8 0.4
v 0.3 0.2 0.4
v 0.3 0.3 0.4
v 0.1 0.2 0.3
v 0.1 0.3 0.3
v 0.2 0 0.3
v 0.2 0.2 0.3
v 0.2 0.3 0.3
v 0.2 0.4 0.3
v 0.3 0 0.3
v 0.3 0.2 0.3
v 0.3 0.3 0.3
v 0.3 0.4 0.3
v -0.0999999 1 0.9
v -0.0999999 1.1 0.9
v 7.45058e-08 1.1 0.9
v 0.1 1 0.9
v 0.1 1.1 0.9
v 7.45058e-08 1.2 0.8
v 7.45058e-08 1.3 0.8
v 7.45058e-08 1.4 0.8
v 7.45058e-08 1.5 0.8
v 0.1 1.2 0.8
v 0.1 1.3 0.8
v 0.1 1.4 0.8
v 0.1 1.5 0.8
v 0.1 1.6 0.8
v 0.2 1.2 0.8
v 0.2 1.3 0.8
v 0.2 1.4 0.8
v 0.2 1.5 0.8
v 0.2 1.6 0.8
v 0.3 1.2 0.8
v 0.3 1.3 0.8
v 0.3 1.4 0.8
v 0.3 1.5 0.8
v -0.0999999 1.1 0.7
v -0.0999999 1.2 0.7
v 7.45058e-08 1.1 0.7
v 7.45058e-08 1.2 0.7
v 7.45058e-08 1.3 0.7
v 7.45058e-08 1.4 0.7
v 0.1 1.1 0.7
v 0.1 1.2 0.7
v 0.1 1.3 0.7
v 0.1 1.4 0.7
v 0.1 1.5 0.7
v 0.2 1.4 0.7
v 0.2 1.5 0.7
v 0.3 1.1 0.7
v 0.4 1.1 0.7
v 0.4 1.2 0.7
v 7.45058e-08 1.1 0.6
v 7.45058e-08 1.2 0.6
v 0.1 0.9 0.6
v 0.1 1.1 0.6
v 0.1 1.2 0.6
v 0.1 1.3 0.6
v 0.1 1.4 0.6
v 0.2 1.2 0.6
v 0.2 1.3 0.6
v 0.2 1.4 0.6
v 0.3 0.9 0.6
v 0.3 1.1 0.6
v -0.0999999 1.2 0.5
v -0.0999999 1.3 0.5
v 7.45058e-08 0.9 0.5
v 7.45058e-08 1.1 0.5
v 0.1 0.7 0.5
v 0.1 0.8 0.5
v 0.1 0.9 0.5
v 0.1 1.1 0.5
v 0.1 1.2 0.5
v 0.1 1.3 0.5
v 0.2 0.7 0.5
v 0.2 0.8 0.5
v 0.2 1.2 0.5
v 0.2 1.3 0.5
v 0.4 1.2 0.5
v 0.4 1.3 0.5
v 7.45058e-08 0.4 0.4
v 7.45058e-08 0.5 0.4
v 7.45058e-08 0.8 0.4
v 7.45058e-08 0.9 0.4
v 0.1 0.4 0.4
v 0.1 0.5 0.4
v 0.2 0.6 0.4
v 0.2 0.8 0.4
v 0.3 0.6 0.4
v 0.3 0.9 0.4
v 7.45058e-08 0.3 0.3
v 7.45058e-08 0.4 0.3
v 7.45058e-08 0.5 0.3
v 7.45058e-08 0.8 0.3
v 0.1 0.3 0.3
v 0.1 0.4 0.3
v 0.1 0.5 0.3
v 0.1 0.6 0.3
v 0.2 0.6 0.3
v 0.2 0.8 0.3
v 0.1 0.2 0.2
v 0.1 0.6 0.2
v 0.2 0 0.2
v 0.2 0.2 0.2
v 0.3 0 0.2
v 0.3 0.6 0.2
v 0.2 0 0.3
v 0.3 0 0.3
v 0.2 0 0.2
v 0.3 0 0.2
v 0.2 0.2 0.4
v 0.3 0.2 0.4
v 0.1 0.2 0.3
v 0.2 0.2 0.3
v 0.3 0.2 0.3
v 0.1 0.2 0.2
v 0.2 0.2 0.2
v 7.45058e-08 0.3 0.5
v 0.2 0.3 0.5
v 0.2 0.3 0.4
v 7.45058e-08 0.3 0.3
v 0.1 0.3 0.3
v 0.2 0.3 0.3
v 0.2 0.4 0.5
v 0.3 0.4 0.5
v 0.2 0.4 0.3
v 0.3 0.4 0.3
v 7.45058e-08 0.5 0.6
v 0.3 0.5 0.6
v 7.45058e-08 0.5 0.5
v 0.1 0.5 0.5
v 0.2 0.5 0.5
v 0.3 0.5 0.5
v 7.45058e-08 0.5 0.4
v 0.1 0.5 0.4
v 0.2 0.5 0.4
v 7.45058e-08 0.5 0.3
v 0.1 0.5 0.3
v 7.45058e-08 0.7 0.7
v 0.3 0.7 0.7
v 7.45058e-08 0.7 0.6
v 0.2 0.7 0.6
v 0.2 0.7 0.5
v 0.3 0.7 0.5
v 0.1 0.8 0.5
v 0.2 0.8 0.5
v 0.1 0.8 0.4
v 0.2 0.8 0.4
v 7.45058e-08 0.9 0.8
v 0.3 0.9 0.8
v 0.1 0.9 0.7
v 0.3 0.9 0.7
v 7.45058e-08 0.9 0.6
v 0.1 0.9 0.6
v -0.0999999 1 1
v 0.3 1 1
v -0.0999999 1 0.9
v 0.1 1 0.9
v 0.1 1 0.8
v 0.3 1 0.8
v 7.45058e-08 1.1 0.9
v 0.1 1.1 0.9
v 0.3 1.1 0.9
v 0.4 1.1 0.9
v -0.0999999 1.1 0.8
v 7.45058e-08 1.1 0.8
v -0.0999999 1.1 0.7
v 7.45058e-08 1.1 0.7
v 0.1 1.1 0.7
v 0.3 1.1 0.7
v 0.4 1.1 0.7
v 0.1 1.2 1
v 0.2 1.2 1
v 0.1 1.2 0.9
v 0.2 1.2 0.9
v -0.0999999 1.2 0.7
v 7.45058e-08 1.2 0.7
v 0.1 1.2 0.7
v 0.4 1.2 0.7
v 7.45058e-08 1.2 0.6
v 0.1 1.2 0.6
v 0.2 1.2 0.6
v -0.0999999 1.2 0.5
v 0.1 1.2 0.5
v 0.2 1.2 0.5
v 0.4 1.2 0.5
v 7.45058e-08 1.3 1
v 0.1 1.3 1
v 0.2 1.3 1
v 0.3 1.3 1
v 7.45058e-08 1.3 0.9
v 0.1 1.3 0.9
v 0.2 1.3 0.9
v 0.3 1.3 0.9
v 7.45058e-08 1.3 0.8
v 0.1 1.3 0.8
v 7.45058e-08 1.3 0.7
v 0.1 1.3 0.7
v 0.2 0.3 0.4
v 0.3 0.3 0.4
v 0.2 0.3 0.3
v 0.3 0.3 0.3
v 0.1 0.4 0.5
v 0.2 0.4 0.5
v 7.45058e-08 0.4 0.4
v 0.1 0.4 0.4
v 0.2 0.4 0.4
v 7.45058e-08 0.4 0.3
v 0.1 0.4 0.3
v 0.2 0.6 0.6
v 0.3 0.6 0.6
v 0.2 0.6 0.5
v 0.3 0.6 0.5
v 0.2 0.6 0.4
v 0.3 0.6 0.4
v 0.1 0.6 0.3
v 0.2 0.6 0.3
v 0.1 0.6 0.2
v 0.3 0.6 0.2
v 0.1 0.7 0.5
v 0.2 0.7 0.5
v 0.1 0.7 0.4
v 0.2 0.7 0.4
v 7.45058e-08 0.8 0.7
v 0.1 0.8 0.7
v 7.45058e-08 0.8 0.6
v 0.1 0.8 0.6
v 7.45058e-08 0.8 0.4
v 0.2 0.8 0.4
v 7.45058e-08 0.8 0.3
v 0.2 0.8 0.3
v 0.1 0.9 0.6
v 0.3 0.9 0.6
v 7.45058e-08 0.9 0.5
v 0.1 0.9 0.5
v 7.45058e-08 0.9 0.4
v 0.3 0.9 0.4
v 7.45058e-08 1 0.8
v 0.1 1 0.8
v 7.45058e-08 1 0.7
v 0.1 1 0.7
v -0.0999999 1.1 1
v 0.3 1.1 1
v -0.0999999 1.1 0.9
v 7.45058e-08 1.1 0.9
v 0.3 1.1 0.9
v 0.1 1.1 0.7
v 0.3 1.1 0.7
v 7.45058e-08 1.1 0.6
v 0.1 1.1 0.6
v 0.3 1.1 0.6
v 7.45058e-08 1.1 0.5
v 0.1 1.1 0.5
v 0.3 1.2 0.9
v 0.4 1.2 0.9
v -0.0999999 1.2 0.8
v 7.45058e-08 1.2 0.8
v 0.1 1.2 0.8
v 0.2 1.2 0.8
v 0.3 1.2 0.8
v -0.0999999 1.2 0.7
v 7.45058e-08 1.2 0.7
v 0.1 1.2 0.7
v 0.2 1.2 0.7
v 0.4 1.2 0.7
v 7.45058e-08 1.2 0.6
v 0.1 1.2 0.6
v -0.0999999 1.3 0.7
v 7.45058e-08 1.3 0.7
v 0.2 1.3 0.7
v 0.4 1.3 0.7
v 7.45058e-08 1.3 0.6
v 0.1 1.3 0.6
v 0.2 1.3 0.6
v -0.0999999 1.3 0.5
v 0.1 1.3 0.5
v 0.2 1.3 0.5
v 0.4 1.3 0.5
v 7.45058e-08 1.4 1
v 0.1 1.4 1
v 0.2 1.4 1
v 0.3 1.4 1
v 7.45058e-08 1.4 0.9
v 0.1 1.4 0.9
v 0.2 1.4 0.9
v 0.3 1.4 0.9
v 7.45058e-08 1.4 0.8
v 0.1 1.4 0.8
v 7.45058e-08 1.4 0.7
v 0.1 1.4 0.7
v 0.2 1.4 0.7
v 0.1 1.4 0.6
v 0.2 1.4 0.6
v 0.1 1.5 1
v 0.2 1.5 1
v 7.45058e-08 1.5 0.9
v 0.1 1.5 0.9
v 0.2 1.5 0.9
v 0.3 1.5 0.9
v 7.45058e-08 1.5 0.8
v 0.1 1.5 0.8
v 0.2 1.5 0.8
v 0.3 1.5 0.8
v 0.1 1.5 0.7
v 0.2 1.5 0.7
v 0.1 1.6 0.9
v 0.2 1.6 0.9
v 0.1 1.6 0.8
v 0.2 1.6 0.8

# faces
f 3/5/1 2/5/1 1/5/1
f 4/5/1 2/5/1 3/5/1
f 7/5/1 6/5/1 5/5/1
f 8/5/1 6/5/1 7/5/1
f 10/5/1 9/5/1 8/5/1
f 11/5/1 9/5/1 10/5/1
f 14/5/1 13/5/1 12/5/1
f 15/5/1 13/5/1 14/5/1
f 17/5/1 14/5/1 12/5/1
f 18/5/1 14/5/1 17/5/1
f 21/5/1 17/5/1 16/5/1
f 21/5/1 19/5/1 18/5/1
f 21/5/1 18/5/1 17/5/1
f 22/5/1 21/5/1 20/5/1
f 23/5/1 19/5/1 21/5/1
f 23/5/1 21/5/1 22/5/1
f 24/5/1 19/5/1 23/5/1
f 25/5/1 19/5/1 24/5/1
f 27/5/1 24/5/1 23/5/1
f 28/5/1 24/5/1 27/5/1
f 29/5/1 24/5/1 28/5/1
f 30/5/1 27/5/1 26/5/1
f 30/5/1 28/5/1 27/5/1
f 31/5/1 28/5/1 30/5/1
f 34/5/1 28/5/1 31/5/1
f 35/5/1 28/5/1 34/5/1
f 36/5/1 28/5/1 35/5/1
f 37/5/1 33/5/1 32/5/1
f 38/5/1 33/5/1 37/5/1
f 39/5/1 35/5/1 34/5/1
f 40/5/1 35/5/1 39/5/1
f 42/3/1 38/3/1 37/3/1
f 43/3/1 38/3/1 42/3/1
f 45/2/1 42/2/1 41/2/1
f 45/2/1 44/2/1 43/2/1
f 45/2/1 43/2/1 42/2/1
f 46/2/1 44/2/1 45/2/1
f 47/2/1 44/2/1 46/2/1
f 48/2/1 44/2/1 47/2/1
f 49/1/1 47/1/1 46/1/1
f 50/1/1 47/1/1 49/1/1
f 53/5/1 52/5/1 51/5/1
f 55/5/1 52/5/1 53/5/1
f 56/5/1 55/5/1 54/5/1
f 57/5/1 52/5/1 55/5/1
f 57/5/1 55/5/1 56/5/1
f 58/5/1 52/5/1 57/5/1
f 59/5/1 52/5/1 58/5/1
f 62/5/1 61/5/1 60/5/1
f 63/5/1 61/5/1 62/5/1
f 67/5/1 65/5/1 64/5/1
f 67/5/1 66/5/1 65/5/1
f 68/5/1 66/5/1 67/5/1
f 74/3/1 70/3/1 69/3/1
f 75/3/1 70/3/1 74/3/1
f 76/3/1 72/3/1 71/3/1
f 77/5/1 73/5/1 72/5/1
f 77/3/1 72/3/1 76/3/1
f 78/5/1 73/5/1 77/5/1
f 82/3/1 78/3/1 77/3/1
f 83/3/1 78/3/1 82/3/1
f 84/1/1 80/1/1 79/1/1
f 85/1/1 80/1/1 84/1/1
f 86/2/1 82/2/1 81/2/1
f 87/2/1 82/2/1 86/2/1
f 88/1/1 86/1/1 85/1/1
f 89/1/1 86/1/1 88/1/1
f 93/5/1 91/5/1 90/5/1
f 94/5/1 91/5/1 93/5/1
f 95/5/1 93/5/1 92/5/1
f 96/5/1 93/5/1 95/5/1
f 99/5/1 98/5/1 97/5/1
f 100/5/1 98/5/1 99/5/1
f 103/5/1 102/5/1 101/5/1
f 104/5/1 102/5/1 103/5/1
f 107/5/1 106/5/1 105/5/1
f 108/5/1 106/5/1 107/5/1
f 109/5/2 110/5/2 111/5/2
f 111/5/2 110/5/2 112/5/2
f 113/5/2 114/5/2 115/5/2
f 115/5/2 114/5/2 116/5/2
f 117/5/2 118/5/2 119/5/2
f 119/5/2 118/5/2 120/5/2
f 121/5/2 122/5/2 124/5/2
f 124/5/2 122/5/2 125/5/2
f 123/5/2 124/5/2 126/5/2
f 126/5/2 124/5/2 127/5/2
f 127/5/2 128/5/2 129/5/2
f 129/5/2 128/5/2 130/5/2
f 131/5/2 132/5/2 134/5/2
f 132/5/2 133/5/2 134/5/2
f 134/5/2 133/5/2 135/5/2
f 136/5/2 137/5/2 140/5/2
f 140/5/2 137/5/2 141/5/2
f 138/5/2 139/5/2 142/5/2
f 142/5/2 139/5/2 143/5/2
f 144/3/2 145/3/2 148/3/2
f 148/3/2 145/3/2 149/3/2
f 146/3/2 147/3/2 150/3/2
f 150/3/2 147/3/2 151/3/2
f 150/2/2 151/2/2 155/2/2
f 151/3/2 152/3/2 156/3/2
f 155/2/2 151/2/2 156/2/2
f 156/3/2 152/3/2 157/3/2
f 153/1/2 154/1/2 158/1/2
f 158/1/2 154/1/2 159/1/2
f 155/2/2 156/2/2 160/2/2
f 160/2/2 156/2/2 161/2/2
f 159/1/2 160/1/2 162/1/2
f 162/1/2 160/1/2 163/1/2
f 164/5/2 165/5/2 167/5/2
f 166/5/2 167/5/2 168/5/2
f 167/5/2 165/5/2 169/5/2
f 168/5/2 167/5/2 169/5/2
f 169/5/2 165/5/2 171/5/2
f 170/5/2 171/5/2 173/5/2
f 172/5/2 173/5/2 174/5/2
f 173/5/2 171/5/2 175/5/2
f 174/5/2 173/5/2 175/5/2
f 175/5/2 171/5/2 176/5/2
f 171/5/2 165/5/2 177/5/2
f 176/5/2 171/5/2 177/5/2
f 175/5/2 176/5/2 179/5/2
f 178/5/2 179/5/2 181/5/2
f 181/5/2 179/5/2 182/5/2
f 179/5/2 176/5/2 183/5/2
f 182/5/2 179/5/2 183/5/2
f 181/5/2 182/5/2 185/5/2
f 180/5/2 181/5/2 185/5/2
f 184/5/2 185/5/2 186/5/2
f 186/5/2 185/5/2 187/5/2
f 185/5/2 182/5/2 188/5/2
f 187/5/2 185/5/2 188/5/2
f 188/5/2 182/5/2 189/5/2
f 190/3/2 191/3/2 193/3/2
f 193/3/2 191/3/2 194/3/2
f 192/2/2 193/2/2 195/2/2
f 193/2/2 194/2/2 195/2/2
f 195/2/2 194/2/2 196/2/2
f 196/2/2 194/2/2 197/2/2
f 196/1/2 197/1/2 198/1/2
f 198/1/2 197/1/2 199/1/2
f 200/5/2 201/5/2 202/5/2
f 202/5/2 201/5/2 203/5/2
f 203/5/2 204/5/2 205/5/2
f 205/5/2 204/5/2 206/5/2
f 212/2/3 210/2/3 209/2/3
f 213/2/3 210/2/3 212/2/3
f 215/3/3 212/3/3 211/3/3
f 216/2/3 213/2/3 212/2/3
f 216/3/3 212/3/3 215/3/3
f 217/1/3 214/1/3 213/1/3
f 217/2/3 213/2/3 216/2/3
f 218/1/3 214/1/3 217/1/3
f 219/5/3 208/5/3 207/5/3
f 220/5/3 208/5/3 219/5/3
f 221/2/3 217/2/3 216/2/3
f 222/2/3 217/2/3 221/2/3
f 228/5/3 224/5/3 223/5/3
f 228/3/3 225/3/3 224/3/3
f 229/3/3 225/3/3 228/3/3
f 230/1/3 227/1/3 226/1/3
f 231/1/3 227/1/3 230/1/3
f 233/5/3 228/5/3 223/5/3
f 236/1/3 232/1/3 231/1/3
f 237/1/3 232/1/3 236/1/3
f 238/5/3 233/5/3 223/5/3
f 239/3/3 234/3/3 233/3/3
f 239/5/3 233/5/3 238/5/3
f 240/3/3 234/3/3 239/3/3
f 241/1/3 236/1/3 235/1/3
f 242/1/3 236/1/3 241/1/3
f 243/5/3 239/5/3 238/5/3
f 244/5/3 239/5/3 243/5/3
f 249/5/3 246/5/3 245/5/3
f 250/5/3 246/5/3 249/5/3
f 251/5/3 248/5/3 247/5/3
f 252/5/3 251/5/3 247/5/3
f 253/5/3 251/5/3 252/5/3
f 260/5/3 255/5/3 254/5/3
f 261/5/3 255/5/3 260/5/3
f 262/5/3 257/5/3 256/5/3
f 264/5/3 259/5/3 258/5/3
f 265/5/3 259/5/3 264/5/3
f 268/5/3 263/5/3 262/5/3
f 268/5/3 262/5/3 256/5/3
f 269/5/3 263/5/3 268/5/3
f 270/5/3 267/5/3 266/5/3
f 271/5/3 267/5/3 270/5/3
f 278/5/3 275/5/3 274/5/3
f 279/5/3 275/5/3 278/5/3
f 280/5/3 277/5/3 276/5/3
f 281/5/3 277/5/3 280/5/3
f 282/5/3 273/5/3 272/5/3
f 283/5/3 273/5/3 282/5/3
f 284/5/3 282/5/3 272/5/3
f 285/5/3 282/5/3 284/5/3
f 288/5/3 287/5/3 286/5/3
f 289/5/3 287/5/3 288/5/3
f 290/5/3 288/5/3 286/5/3
f 291/5/3 288/5/3 290/5/3
f 295/5/3 292/5/3 291/5/3
f 296/5/3 292/5/3 295/5/3
f 297/5/3 294/5/3 293/5/3
f 298/5/3 294/5/3 297/5/3
f 305/5/3 300/5/3 299/5/3
f 306/5/3 300/5/3 305/5/3
f 307/5/3 302/5/3 301/5/3
f 308/5/3 302/5/3 307/5/3
f 309/5/3 304/5/3 303/5/3
f 310/5/3 304/5/3 309/5/3
f 314/5/3 312/5/3 311/5/3
f 315/5/3 312/5/3 314/5/3
f 317/5/3 314/5/3 313/5/3
f 318/5/3 314/5/3 317/5/3
f 319/5/3 316/5/3 315/5/3
f 320/5/3 316/5/3 319/5/3
f 321/5/4 322/5/4 323/5/4
f 321/5/4 323/5/4 324/5/4
f 324/5/4 323/5/4 325/5/4
f 326/3/4 327/3/4 330/3/4
f 330/3/4 327/3/4 331/3/4
f 328/1/4 329/1/4 332/1/4
f 332/1/4 329/1/4 333/1/4
f 333/1/4 334/1/4 338/1/4
f 338/1/4 334/1/4 339/1/4
f 335/3/4 336/3/4 340/3/4
f 336/2/4 337/2/4 341/2/4
f 340/3/4 336/3/4 341/3/4
f 337/1/4 338/1/4 342/1/4
f 341/2/4 337/2/4 342/2/4
f 342/1/4 338/1/4 343/1/4
f 344/5/4 345/5/4 346/5/4
f 346/5/4 345/5/4 347/5/4
f 348/2/4 349/2/4 352/2/4
f 352/2/4 349/2/4 353/2/4
f 353/2/4 354/2/4 355/2/4
f 355/2/4 354/2/4 356/2/4
f 350/5/4 351/5/4 357/5/4
f 357/5/4 351/5/4 358/5/4
f 358/5/4 351/5/4 359/5/4
f 360/5/4 361/5/4 363/5/4
f 363/5/4 361/5/4 364/5/4
f 364/5/4 365/5/4 367/5/4
f 365/3/4 366/3/4 368/3/4
f 367/5/4 365/5/4 368/5/4
f 368/3/4 366/3/4 369/3/4
f 362/5/4 363/5/4 370/5/4
f 370/5/4 363/5/4 371/5/4
f 374/5/4 375/5/4 378/5/4
f 378/5/4 375/5/4 379/5/4
f 372/5/4 373/5/4 380/5/4
f 380/5/4 373/5/4 381/5/4
f 376/5/4 377/5/4 382/5/4
f 382/5/4 377/5/4 383/5/4
f 384/5/4 385/5/4 386/5/4
f 386/5/4 385/5/4 387/5/4
f 388/5/4 389/5/4 392/5/4
f 392/5/4 389/5/4 393/5/4
f 390/5/4 391/5/4 395/5/4
f 394/5/4 395/5/4 396/5/4
f 395/5/4 391/5/4 397/5/4
f 396/5/4 395/5/4 397/5/4
f 398/5/4 399/5/4 402/5/4
f 402/5/4 399/5/4 403/5/4
f 400/5/4 401/5/4 404/5/4
f 404/5/4 401/5/4 405/5/4
f 405/5/4 401/5/4 406/5/4
f 406/5/4 401/5/4 407/5/4
f 408/5/4 409/5/4 411/5/4
f 410/5/4 411/5/4 412/5/4
f 411/5/4 409/5/4 413/5/4
f 412/5/4 411/5/4 413/5/4
f 416/5/5 415/5/5 414/5/5
f 417/5/5 415/5/5 416/5/5
f 421/5/5 419/5/5 418/5/5
f 422/5/5 419/5/5 421/5/5
f 423/5/5 421/5/5 420/5/5
f 424/5/5 421/5/5 423/5/5
f 427/5/5 426/5/5 425/5/5
f 428/5/5 427/5/5 425/5/5
f 429/5/5 427/5/5 428/5/5
f 430/5/5 427/5/5 429/5/5
f 433/5/5 432/5/5 431/5/5
f 434/5/5 432/5/5 433/5/5
f 437/5/5 436/5/5 435/5/5
f 438/5/5 436/5/5 437/5/5
f 439/5/5 436/5/5 438/5/5
f 440/5/5 436/5/5 439/5/5
f 442/5/5 439/5/5 438/5/5
f 443/5/5 439/5/5 442/5/5
f 444/5/5 442/5/5 441/5/5
f 445/5/5 442/5/5 444/5/5
f 448/5/5 447/5/5 446/5/5
f 449/5/5 447/5/5 448/5/5
f 450/5/5 447/5/5 449/5/5
f 451/5/5 447/5/5 450/5/5
f 454/5/5 453/5/5 452/5/5
f 455/5/5 453/5/5 454/5/5
f 458/5/5 457/5/5 456/5/5
f 459/5/5 457/5/5 458/5/5
f 460/5/5 458/5/5 456/5/5
f 461/5/5 458/5/5 460/5/5
f 464/5/5 463/5/5 462/5/5
f 465/5/5 463/5/5 464/5/5
f 466/5/5 463/5/5 465/5/5
f 467/5/5 463/5/5 466/5/5
f 473/5/5 469/5/5 468/5/5
f 474/5/5 473/5/5 472/5/5
f 475/5/5 469/5/5 473/5/5
f 475/5/5 473/5/5 474/5/5
f 476/5/5 469/5/5 475/5/5
f 477/5/5 471/5/5 470/5/5
f 478/5/5 471/5/5 477/5/5
f 481/3/5 480/3/5 479/3/5
f 482/3/5 480/3/5 481/3/5
f 487/5/5 484/5/5 483/5/5
f 488/5/5 486/5/5 485/5/5
f 489/5/5 486/5/5 488/5/5
f 490/5/5 487/5/5 483/5/5
f 490/5/5 488/5/5 487/5/5
f 491/5/5 488/5/5 490/5/5
f 492/5/5 486/5/5 489/5/5
f 493/5/5 486/5/5 492/5/5
f 498/2/5 495/2/5 494/2/5
f 499/2/5 495/2/5 498/2/5
f 500/2/5 497/2/5 496/2/5
f 501/2/5 497/2/5 500/2/5
f 504/2/5 503/2/5 502/2/5
f 505/2/5 503/2/5 504/2/5
f 506/5/6 507/5/6 508/5/6
f 508/5/6 507/5/6 509/5/6
f 510/5/6 511/5/6 513/5/6
f 513/5/6 511/5/6 514/5/6
f 512/5/6 513/5/6 515/5/6
f 515/5/6 513/5/6 516/5/6
f 517/5/6 518/5/6 519/5/6
f 519/5/6 518/5/6 520/5/6
f 521/5/6 522/5/6 524/5/6
f 523/5/6 524/5/6 525/5/6
f 524/5/6 522/5/6 526/5/6
f 525/5/6 524/5/6 526/5/6
f 527/5/6 528/5/6 529/5/6
f 529/5/6 528/5/6 530/5/6
f 531/5/6 532/5/6 533/5/6
f 533/5/6 532/5/6 534/5/6
f 535/5/6 536/5/6 537/5/6
f 537/5/6 536/5/6 538/5/6
f 539/5/6 540/5/6 542/5/6
f 541/5/6 542/5/6 543/5/6
f 542/5/6 540/5/6 544/5/6
f 543/5/6 542/5/6 544/5/6
f 545/5/6 546/5/6 547/5/6
f 547/5/6 546/5/6 548/5/6
f 549/5/6 550/5/6 551/5/6
f 551/5/6 550/5/6 552/5/6
f 552/5/6 550/5/6 553/5/6
f 554/5/6 555/5/6 557/5/6
f 557/5/6 555/5/6 558/5/6
f 556/5/6 557/5/6 559/5/6
f 559/5/6 557/5/6 560/5/6
f 561/5/6 562/5/6 567/5/6
f 564/5/6 565/5/6 568/5/6
f 563/5/6 564/5/6 568/5/6
f 568/5/6 565/5/6 569/5/6
f 569/5/6 565/5/6 570/5/6
f 566/5/6 567/5/6 571/5/6
f 567/5/6 562/5/6 572/5/6
f 571/5/6 567/5/6 572/5/6
f 569/5/6 570/5/6 573/5/6
f 573/5/6 570/5/6 574/5/6
f 575/5/6 576/5/6 579/5/6
f 577/5/6 578/5/6 581/5/6
f 579/5/6 580/5/6 582/5/6
f 575/5/6 579/5/6 582/5/6
f 582/5/6 580/5/6 583/5/6
f 581/5/6 578/5/6 584/5/6
f 584/5/6 578/5/6 585/5/6
f 586/2/6 587/2/6 590/2/6
f 590/2/6 587/2/6 591/2/6
f 588/2/6 589/2/6 592/2/6
f 592/2/6 589/2/6 593/2/6
f 594/2/6 595/2/6 596/2/6
f 596/2/6 595/2/6 597/2/6
f 597/3/6 598/3/6 599/3/6
f 599/3/6 598/3/6 600/3/6
f 601/1/6 602/1/6 604/1/6
f 604/1/6 602/1/6 605/1/6
f 603/1/6 604/1/6 607/1/6
f 607/1/6 604/1/6 608/1/6
f 605/1/6 606/1/6 609/1/6
f 609/1/6 606/1/6 610/1/6
f 608/2/6 609/2/6 611/2/6
f 611/2/6 609/2/6 612/2/6
f 613/1/6 614/1/6 615/1/6
f 615/1/6 614/1/6 616/1/6
